
        <svg xmlns="http://www.w3.org/2000/svg" xmlns:xlink="http://www.w3.org/1999/xlink" version="1.1" width="3187.5" 
        height="2052.120480385598" viewBox="0 0 3187.5 2052.120480385598">
			
			<g transform="scale(9.375) translate(10, 10)">
				<defs id="SvgjsDefs1016"></defs><g id="SvgjsG1017" featureKey="S6ay6y-0" transform="matrix(1.9889285124113043,0,0,1.9889285124113043,-49.72454815047038,0)" fill="#4c102a"><g xmlns="http://www.w3.org/2000/svg"><g><path d="M37,50c-1.048,7.799,3.27,10.057,3.27,19.602c0,25.398-40.086,30.333,9.642,30.396V100c0.083,0,0.161-0.001,0.245-0.001    S50.317,100,50.402,100v-0.002c18.305-0.023,24.432-1.323,24.877-3.995C51,81,45,67.179,37,50z"></path></g><path d="M38.275,41.361C34,51,57,86,75,94c-4.397-4.956-14.957-15.013-14.957-24.398c0-12.317,10.133-12.792,1.993-28.24   c-8.139-15.448-1.162-19.435,1.993-22.757C67.187,15.282,62.701,9.801,60.376,0l-2.295,2.987c0.592,3.58-0.948,7.395-2.531,7.395   c-4.484,0-5.481,3.571-5.481,3.571s-1.495-3.571-5.316-3.571c-1.618,0-3.335-3.991-2.709-7.642L39.938,0   c-2.325,9.801-6.811,15.282-3.655,18.604C39.438,21.927,45.355,25.398,38.275,41.361z"></path></g></g><g id="SvgjsG1018" featureKey="j5pGhi-0" transform="matrix(4.034361884464865,0,0,4.034361884464865,120.016660442727,34.56023125433129)" fill="#4c102a"><path d="M11.32 10.32 c0.1 0.22 0.12 0.46 0.1 0.68 c0 0.1 -0.02 0.18 -0.06 0.26 c-0.06 0.1 -0.16 0.12 -0.26 0.1 c-0.06 0 -0.1 0 -0.16 -0.04 c-0.08 -0.02 -0.14 -0.08 -0.2 -0.12 c-0.32 -0.26 -0.76 -0.34 -1.18 -0.38 c-0.48 -0.04 -1.02 -0.08 -1.5 0.02 c-0.36 0.08 -0.72 0.18 -0.98 0.46 c-0.54 0.52 -0.72 1.34 -0.9 2.04 c-0.14 0.54 -0.24 1.1 -0.34 1.64 c0.58 -0.22 1.24 -0.42 1.82 -0.04 c0.24 0.16 0.42 0.46 0.36 0.76 c-0.02 0.1 -0.06 0.2 -0.16 0.24 c-0.06 0.02 -0.12 0 -0.2 -0.02 c-0.42 -0.08 -0.86 -0.1 -1.28 -0.02 c-0.24 0.06 -0.46 0.14 -0.66 0.24 c-0.14 1.34 -0.14 2.72 -0.42 4.04 c-0.28 1.28 -0.88 2.76 -2.16 3.32 c-1.2 0.54 -2.88 0.08 -3.12 -1.36 c-0.14 -0.9 0.34 -1.76 1.16 -2.1 c0.22 -0.08 0.44 -0.14 0.68 -0.14 c0.1 0 0.2 0.02 0.24 0.1 c0.06 0.1 0 0.2 -0.04 0.28 l-0.12 0.32 c-0.06 0.14 -0.1 0.32 -0.08 0.48 c0 0.12 0.04 0.26 0.1 0.38 c0.08 0.08 0.2 0.1 0.3 0.1 c0.44 0.02 0.8 -0.28 1.02 -0.62 c0.58 -0.86 0.72 -1.96 0.84 -2.96 c0.04 -0.38 0.08 -0.76 0.14 -1.16 c-0.22 0.08 -0.42 0.14 -0.64 0.2 c-0.36 0.08 -0.76 0.12 -1.04 -0.16 c-0.28 -0.24 -0.3 -0.68 -0.22 -1.06 c0.04 -0.14 0.1 -0.28 0.2 -0.4 c0.2 -0.22 0.34 -0.16 0.52 0.02 s0.42 0.24 0.66 0.24 c0.1 0 0.2 0 0.32 -0.02 s0.24 -0.04 0.36 -0.08 c0.04 -0.32 0.08 -0.62 0.14 -0.94 c0.16 -1 0.42 -1.98 0.8 -2.92 c-0.84 0.36 -1.68 0.68 -2.6 0.64 c-0.36 0 -0.76 -0.06 -1.02 -0.32 c-0.1 -0.1 -0.16 -0.2 -0.22 -0.32 c-0.18 -0.36 -0.24 -0.8 -0.08 -1.18 c0.16 -0.36 0.56 -0.64 0.96 -0.58 l0.06 0.04 l0.06 0.06 c0.16 0.42 0.56 0.62 0.98 0.7 c0.36 0.06 0.74 0.02 1.08 -0.06 c1 -0.18 1.94 -0.56 2.92 -0.84 c0.76 -0.22 1.54 -0.36 2.32 -0.3 c0.36 0.04 0.72 0.1 1.04 0.26 c0.22 0.12 0.36 0.3 0.46 0.52 z M19.506 21.02 c0.06 0.08 0.08 0.28 0.08 0.36 c0 0.16 0 0.32 -0.04 0.48 c-0.12 0.46 -0.44 0.88 -0.82 1.14 c-0.6 0.38 -1.44 0.5 -2.08 0.2 c-0.54 -0.24 -0.94 -0.76 -1.14 -1.32 c-0.18 -0.52 -0.16 -1.08 -0.08 -1.62 c0.1 -0.96 0.3 -1.88 0.54 -2.82 l-0.92 0.12 c-0.4 1.02 -0.78 2.06 -1.26 3.06 c-0.46 0.92 -1.04 1.94 -2 2.42 c-1 0.46 -2.2 0.22 -2.78 -0.76 c-0.54 -0.96 -0.3 -2.18 0.28 -3.06 c0.56 -0.88 1.42 -1.54 2.36 -1.96 c0.78 -0.36 1.6 -0.6 2.44 -0.78 c0.26 -0.64 0.54 -1.28 0.82 -1.9 c0.36 -0.78 0.72 -1.56 1.18 -2.28 c0.68 -1.06 1.52 -2.12 2.78 -2.48 c0.24 -0.06 0.48 -0.1 0.7 -0.04 c0.06 0 0.1 0.02 0.12 0.04 c0.08 0.06 0.08 0.16 0.08 0.24 c-0.02 0.36 -0.18 0.68 -0.3 1 c-0.1 0.26 -0.18 0.54 -0.28 0.82 l-0.5 1.54 c-0.28 0.9 -0.5 1.82 -0.68 2.74 c0 -0.04 0.74 0.08 0.82 0.08 c0.04 0 0.08 0.02 0.12 0.04 c0.04 0.04 0.04 0.08 0.06 0.14 c0.02 0.24 -0.06 0.48 -0.22 0.66 c-0.1 0.12 -0.26 0.22 -0.42 0.26 c-0.18 0.06 -0.38 0.02 -0.58 0.02 c-0.12 0.78 -0.2 1.56 -0.22 2.36 c-0.02 0.48 -0.18 1.68 0.56 1.78 c0.2 0.02 0.4 -0.04 0.58 -0.14 c0.22 -0.1 0.42 -0.26 0.64 -0.38 c0.04 -0.02 0.06 -0.02 0.08 -0.02 c0.04 0 0.06 0.02 0.08 0.06 z M12.826 19.62 c0.26 -0.56 0.48 -1.14 0.7 -1.72 c-0.4 0.1 -0.8 0.24 -1.18 0.4 c-0.2 0.14 -0.4 0.28 -0.58 0.44 c-0.46 0.44 -0.88 1.02 -0.92 1.68 c-0.02 0.22 -0.02 0.58 0.2 0.68 c0.16 0.06 0.44 -0.02 0.6 -0.1 c0.54 -0.28 0.88 -0.86 1.18 -1.38 z M16.445999999999998 14.32 c-0.3 0.64 -0.6 1.28 -0.88 1.92 l0.74 -0.08 c0.26 -0.84 0.52 -1.68 0.82 -2.52 c0.18 -0.46 0.34 -0.92 0.54 -1.38 l0.06 -0.22 c0 0.02 -0.02 0.04 -0.02 0.04 c-0.52 0.72 -0.9 1.46 -1.26 2.24 z M24.692 8.74 c0.38 0.2 0.7 0.58 0.94 0.96 c0.5 0.88 0.54 1.8 0.5 2.78 c-0.04 1.04 -0.14 2.06 -0.32 3.08 c-0.26 1.48 -0.7 2.94 -1.24 4.34 l-0.28 0.7 c-0.36 0.86 -0.8 1.72 -1.6 2.26 c-0.98 0.64 -2.26 0.28 -2.64 -0.84 c-0.14 -0.42 -0.18 -0.88 -0.16 -1.34 c0 -1.34 0.26 -2.66 0.46 -4 c0.18 -1.3 0.24 -2.64 0.1 -3.94 c-0.08 -0.84 -0.22 -1.62 -0.54 -2.38 c-0.06 -0.18 -0.16 -0.5 0.04 -0.62 c0.06 -0.06 0.14 -0.06 0.22 -0.06 c0.42 0 0.8 0.24 1.06 0.56 s0.42 0.7 0.54 1.1 c0.46 1.42 0.56 2.9 0.48 4.36 c-0.04 0.8 -0.08 1.58 -0.14 2.36 c-0.04 0.78 -0.1 1.56 -0.12 2.32 c-0.02 0.16 0 0.32 0 0.48 c0.02 0.5 0.32 0.46 0.62 0.16 c0.24 -0.26 0.4 -0.58 0.54 -0.9 c1.06 -2.38 1.4 -5.06 1.3 -7.68 c-0.02 -0.38 -0.04 -0.76 -0.1 -1.14 c-0.1 -0.58 -0.28 -1.08 -0.58 -1.58 c-0.1 -0.18 -0.22 -0.36 -0.36 -0.52 c-0.1 -0.1 -0.36 -0.24 -0.3 -0.42 c0.02 -0.06 0.1 -0.1 0.16 -0.14 c0.46 -0.16 1 -0.14 1.42 0.1 z M31.998 9.74 l0.3 0 c0.48 0.06 0.92 0.44 1.1 0.86 c0.54 1.14 0.58 2.4 0.5 3.64 c-0.14 2.24 -0.56 4.6 -1.54 6.64 c-0.46 0.94 -1.14 1.9 -2.16 2.28 c-0.52 0.18 -1.08 0.2 -1.58 -0.02 c-0.52 -0.2 -0.88 -0.62 -1.18 -1.1 c-0.56 -0.92 -0.82 -1.94 -0.78 -3.02 c0.06 -1.08 0.2 -2.18 0.5 -3.22 c0.28 -1.04 0.68 -2.1 1.28 -3 c0.28 -0.4 0.62 -0.76 0.98 -1.1 l0.14 -0.12 c0.08 -0.06 0.2 -0.22 0.26 -0.3 l0.3 -0.38 c0.2 -0.24 0.44 -0.46 0.7 -0.64 c0.32 -0.22 0.76 -0.46 1.18 -0.52 z M30.198 20.42 c0.92 -0.1 1.36 -1.2 1.68 -2 c0.4 -1.34 0.62 -2.74 0.7 -4.12 c0.06 -0.88 0.1 -1.76 -0.14 -2.6 c-0.06 -0.16 -0.1 -0.32 -0.28 -0.4 c-0.28 -0.1 -0.58 0.18 -0.74 0.38 c-0.24 0.32 -0.4 0.76 -0.5 1.14 c-0.12 0.44 -0.18 0.9 -0.04 1.34 c0.04 0.16 0.12 0.34 0.26 0.46 c0.16 0.14 0.4 0.2 0.62 0.2 c0.04 0 0.08 0 0.12 0.04 l0.04 0.08 c0.04 0.32 -0.1 0.62 -0.34 0.82 c-0.48 0.4 -1.3 0.36 -1.78 0 c-0.24 -0.16 -0.4 -0.38 -0.54 -0.64 c-0.3 1.1 -0.32 2.24 -0.2 3.44 c0.08 0.72 0.12 1.98 1.14 1.86 z M42.004 21.94 c0.04 0.02 0.04 0.08 0.04 0.12 c0.02 0.38 -0.08 0.76 -0.26 1.1 c-0.24 0.38 -0.6 0.62 -1.04 0.74 c-0.7 0.16 -1.48 -0.06 -1.86 -0.72 c-0.24 -0.44 -0.3 -0.96 -0.22 -1.46 c0.06 -0.5 0.24 -0.98 0.44 -1.46 c0.14 -0.36 0.3 -0.72 0.38 -1.12 c0.1 -0.38 0.12 -0.78 -0.02 -1.16 c-0.04 -0.1 -0.08 -0.2 -0.14 -0.3 c-0.2 -0.26 -0.52 -0.38 -0.84 -0.38 c-0.4 -0.02 -0.76 0.12 -1.14 0.2 c0 0.04 0 0.1 -0.02 0.14 c-0.1 0.62 -0.58 3.28 -0.34 5.42 c0 0.08 0.02 0.18 0 0.26 c-0.06 0.26 -0.36 0.4 -0.62 0.4 c-1.22 -0.02 -1.58 -1.36 -1.54 -2.3 c0.08 -1.74 0.72 -3.4 1.08 -5.1 c0.24 -1.1 0.4 -2.22 0.54 -3.36 c0.18 -1.48 0 -2.78 0.2 -3.1 c0.1 -0.16 0.34 -0.14 0.5 -0.12 c0.26 0.04 0.58 0.24 0.76 0.46 c0.1 0.1 0.18 0.24 0.24 0.38 c0.02 0.04 0.16 0.32 0.14 0.4 c0.6 -0.66 1.5 -1.32 2.38 -1.2 c0.3 0.04 0.8 0.16 1.18 0.8 c0.36 0.64 0.5 1.48 0.44 2.2 c-0.08 1.34 -0.7 2.94 -1.96 3.58 c0.6 0.42 0.86 1.18 0.92 1.9 c0.04 0.58 -0.06 1.14 -0.12 1.72 c-0.08 0.56 -0.3 1.1 -0.34 1.68 c-0.02 0.18 0 0.38 0.16 0.46 c0.08 0.06 0.16 0.06 0.26 0.06 c0.24 -0.02 0.48 -0.1 0.7 -0.22 c0.02 -0.02 0.06 -0.02 0.1 -0.02 z M38.544 12.46 c-0.22 0.3 -0.4 0.64 -0.6 0.98 c-0.1 0.8 -0.22 1.6 -0.34 2.4 c0.3 0.02 0.6 0 0.88 -0.06 c0.6 -0.16 1.08 -0.54 1.42 -1.06 l0.06 -0.12 c0.22 -0.4 0.38 -0.84 0.52 -1.3 c0.12 -0.42 0.26 -0.86 0.24 -1.32 c-0.02 -0.3 -0.04 -0.64 -0.24 -0.88 c-0.04 -0.04 -0.08 -0.08 -0.14 -0.1 c-0.04 0 -0.06 0 -0.1 0.02 c-0.72 0.22 -1.28 0.84 -1.7 1.44 z M47.41 21.72 c0.06 0 0.12 0.02 0.18 0.04 l0.24 0.1 c0.34 0.18 0.56 0.58 0.54 0.96 c0 0.04 -0.02 0.08 -0.02 0.1 c-0.04 0.1 -0.14 0.16 -0.24 0.18 c-0.08 0 -0.18 0 -0.28 -0.02 c-0.44 -0.06 -0.86 -0.16 -1.3 -0.1 c-0.46 0.06 -0.92 0.2 -1.38 0.3 c-0.66 0.14 -1.5 0.28 -2.1 -0.1 c-0.36 -0.22 -0.6 -0.62 -0.54 -1.02 c0.02 -0.06 0.06 -0.14 0.12 -0.16 c0.04 0 0.08 0.04 0.12 0.08 c0.12 0.1 0.3 0.12 0.46 0.14 c0.3 0.04 0.58 0.06 0.88 0.04 c-0.02 -0.04 -0.04 -0.1 -0.04 -0.16 c-0.26 -1.98 0.28 -4 0.68 -5.94 c0.3 -1.48 0.64 -2.96 1.22 -4.38 l0.3 -0.7 c-0.2 -0.04 -0.4 -0.04 -0.6 -0.04 c-0.48 0 -0.92 0.14 -1.36 0.26 c-0.06 0 -0.1 0.02 -0.14 0 c-0.1 -0.02 -0.12 -0.14 -0.12 -0.24 c0 -0.4 0.24 -0.78 0.58 -1.02 c0.32 -0.22 0.72 -0.32 1.12 -0.34 c0.6 -0.02 1.16 0.16 1.76 0.22 c0.58 0.08 1.18 0 1.72 -0.22 c0.04 -0.04 0.1 -0.06 0.16 -0.06 s0.14 0 0.16 0.06 c0.04 0.04 0.04 0.1 0.04 0.16 c0 0.58 -0.46 1.08 -1.02 1.22 c-0.4 0.1 -0.8 0.1 -1.2 0.08 c-0.04 0.32 -0.12 0.62 -0.18 0.92 l-0.28 1.5 c-0.32 1.7 -0.46 3.44 -0.6 5.16 c-0.06 0.9 -0.1 1.8 -0.22 2.7 c0 0.12 -0.02 0.24 -0.04 0.38 c0.46 -0.12 0.9 -0.2 1.38 -0.1 z"></path></g>
			</g>
		</svg>
	