<svg version="1.2" baseProfile="tiny-ps" xmlns="http://www.w3.org/2000/svg" viewBox="0 0 784 258" width="784" height="258">
	<title>logo-trimed-svg</title>
	<style>
		tspan { white-space:pre }
		.shp0 { fill: #69a4cc } 
		.shp1 { fill: #acc4cd } 
		.shp2 { fill: #000000 } 
	</style>
	<path id="Layer" class="shp0" d="M213.89 144.32C217.78 147.54 219.72 152.87 219.72 160.32L219.72 200.3L203.82 200.3L203.82 164.18C203.82 161.05 203.4 158.66 202.57 156.98C201.08 153.94 198.19 152.41 193.92 152.41C188.69 152.41 185.09 154.64 183.16 159.11C182.15 161.47 181.64 164.49 181.64 168.15L181.64 200.29L166.12 200.29L166.12 141.03L181.16 141.03L181.16 149.69C183.14 146.64 185.02 144.44 186.8 143.1C189.98 140.7 194.01 139.5 198.89 139.5C205 139.5 210 141.11 213.89 144.32Z" />
	<path id="Layer" fill-rule="evenodd" class="shp1" d="M245.79 140.86C249.56 142.42 252.6 145.29 254.93 149.47L254.93 140.92L270.08 140.92L270.08 197.23C270.08 204.89 268.79 210.66 266.21 214.55C261.76 221.24 253.26 224.59 240.71 224.59C233.12 224.59 226.93 223.1 222.13 220.11C217.34 217.11 214.69 212.66 214.18 206.77L231.06 206.77C231.49 208.58 232.21 209.89 233.19 210.7C234.86 212.11 237.66 212.82 241.61 212.82C247.2 212.82 250.94 210.95 252.83 207.21C254.06 204.81 254.68 200.77 254.68 195.11L254.68 191.3C254.38 191.85 254.05 192.38 253.7 192.9C253.35 193.41 252.97 193.91 252.57 194.39C252.17 194.87 251.74 195.33 251.29 195.77C250.85 196.21 250.38 196.62 249.89 197.02C246.82 199.4 242.81 200.6 237.87 200.6C230.25 200.6 224.16 197.92 219.6 192.56C215.04 187.2 212.76 179.95 212.76 170.8C212.76 161.98 214.96 154.56 219.35 148.55C223.73 142.54 229.96 139.53 238.01 139.53C238.67 139.52 239.33 139.53 240 139.58C240.65 139.63 241.31 139.71 241.97 139.82C242.62 139.93 243.26 140.07 243.9 140.25C244.54 140.42 245.17 140.63 245.79 140.86ZM251.07 183.43C253.57 180.69 254.82 176.32 254.82 170.33C254.82 164.72 253.63 160.43 251.26 157.47C248.9 154.52 245.71 153.04 241.72 153.06C236.3 153.06 232.56 155.61 230.5 160.74C229.42 163.46 228.87 166.83 228.87 170.84C228.86 171.62 228.89 172.41 228.95 173.2C229.02 173.98 229.12 174.76 229.27 175.53C229.41 176.3 229.6 177.07 229.82 177.82C230.05 178.57 230.31 179.31 230.61 180.04C232.71 185.05 236.47 187.56 241.89 187.56C242.76 187.57 243.63 187.49 244.47 187.31C245.32 187.14 246.15 186.87 246.94 186.52C247.73 186.16 248.48 185.72 249.18 185.2C249.87 184.68 250.51 184.09 251.07 183.44L251.07 183.43Z" />
	<path id="Layer" class="shp0" d="M141.04 120L141.04 134.22L117 134.22L117 200.3L100.13 200.3L100.13 134.22L76 134.22L76 120L141.04 120Z" />
	<path id="Layer" fill-rule="evenodd" class="shp1" d="M159.69 143.75C160.65 144.36 161.57 145.04 162.44 145.78C163.31 146.52 164.12 147.33 164.87 148.19C165.62 149.04 166.32 149.95 166.94 150.91C167.56 151.82 168.13 152.77 168.64 153.75C169.15 154.73 169.61 155.74 170.01 156.77C170.4 157.8 170.75 158.86 171.02 159.93C171.3 161 171.52 162.08 171.67 163.18C171.79 164.16 171.89 165.14 171.97 166.11C172.05 167.1 172.12 168.08 172.16 169.06C172.2 170.04 172.22 171.03 172.23 172.01C172.23 172.99 172.22 173.98 172.18 174.96L128.94 174.96C129.18 180.92 131.25 185.1 135.15 187.49C135.79 187.88 136.46 188.22 137.15 188.51C137.84 188.8 138.54 189.04 139.27 189.23C139.99 189.42 140.73 189.56 141.47 189.64C142.21 189.73 142.97 189.76 143.71 189.74C147.25 189.74 150.12 188.83 152.33 187.02C152.66 186.74 152.98 186.43 153.28 186.12C153.58 185.8 153.86 185.48 154.13 185.13C154.4 184.79 154.65 184.43 154.88 184.06C155.12 183.7 155.33 183.32 155.53 182.93L171.38 182.93C170.96 186.45 169.04 190.03 165.62 193.66C160.3 199.43 152.86 202.32 143.29 202.32C141.4 202.35 139.51 202.21 137.66 201.91C135.79 201.61 133.96 201.14 132.19 200.52C130.41 199.9 128.68 199.12 127.04 198.2C125.39 197.28 123.83 196.22 122.37 195.03C116.33 190.16 113.32 182.24 113.32 171.26C113.32 160.97 116.04 153.09 121.5 147.6C126.95 142.1 134.03 139.36 142.73 139.36C143.92 139.34 145.12 139.39 146.31 139.49C147.5 139.6 148.68 139.77 149.85 140C151.02 140.23 152.18 140.53 153.32 140.89C154.46 141.24 155.58 141.65 156.68 142.13C157.72 142.6 158.73 143.14 159.69 143.75ZM133.45 155.54C131.26 157.78 129.88 160.84 129.32 164.73L156.07 164.73C155.78 160.61 154.41 157.48 151.93 155.35C149.46 153.21 146.39 152.14 142.72 152.15C138.73 152.14 135.65 153.27 133.45 155.54Z" />
	<path id="Layer" fill-rule="evenodd" class="shp0" d="M287.88 164.18C290.77 163.8 292.83 163.35 294.05 162.81C296.3 161.87 297.42 160.4 297.42 158.4C297.42 155.97 296.56 154.29 294.85 153.35C293.14 152.42 290.63 151.96 287.32 151.96C283.6 151.96 280.96 152.87 279.42 154.68C279.12 155.08 278.85 155.49 278.6 155.92C278.35 156.36 278.14 156.8 277.95 157.26C277.77 157.72 277.61 158.19 277.48 158.67C277.36 159.15 277.27 159.64 277.21 160.13L262.23 160.13C262.56 154.94 264.02 150.67 266.6 147.33C270.72 142.1 277.79 139.48 287.83 139.48C294.36 139.48 300.16 140.77 305.23 143.34C310.29 145.92 312.83 150.79 312.84 157.95L312.84 185.19C312.84 187.05 312.88 189.34 312.95 192.05C313.05 194.09 313.36 195.47 313.87 196.2C314.02 196.39 314.18 196.58 314.35 196.76C314.52 196.93 314.7 197.09 314.9 197.25C315.09 197.4 315.29 197.54 315.51 197.66C315.72 197.78 315.94 197.9 316.16 197.99L316.16 200.28L299.28 200.28C299.17 200.01 299.07 199.74 298.98 199.46C298.88 199.18 298.79 198.91 298.71 198.62C298.63 198.34 298.55 198.06 298.48 197.77C298.41 197.49 298.35 197.2 298.3 196.91C298.12 195.86 297.97 194.66 297.86 193.32C297.32 193.9 296.75 194.47 296.17 195.01C295.58 195.55 294.98 196.07 294.35 196.57C293.72 197.07 293.08 197.54 292.42 197.99C291.76 198.43 291.08 198.86 290.39 199.26C289.53 199.75 288.63 200.17 287.71 200.54C286.79 200.91 285.85 201.21 284.89 201.46C283.92 201.7 282.94 201.88 281.96 202C280.97 202.11 279.99 202.16 278.99 202.14C273.59 202.14 269.12 200.61 265.6 197.54C262.08 194.47 260.31 190.12 260.31 184.5C260.31 177.2 263.15 171.92 268.82 168.64C271.93 166.87 276.5 165.59 282.54 164.83L287.88 164.18ZM297.38 171.42C297.14 171.57 296.9 171.71 296.65 171.85C296.41 171.98 296.16 172.11 295.91 172.24C295.65 172.36 295.4 172.48 295.14 172.59C294.89 172.71 294.63 172.81 294.36 172.91C294.03 173.03 293.68 173.14 293.34 173.25C292.99 173.35 292.65 173.45 292.3 173.53C291.96 173.62 291.6 173.71 291.25 173.78C290.9 173.85 290.55 173.92 290.19 173.98L286.66 174.63C283.34 175.21 280.96 175.92 279.52 176.75C277.08 178.17 275.85 180.37 275.85 183.35C275.85 185.99 276.6 187.91 278.1 189.09C278.48 189.39 278.89 189.65 279.33 189.88C279.75 190.11 280.2 190.3 280.67 190.45C281.13 190.6 281.6 190.71 282.09 190.78C282.57 190.85 283.06 190.88 283.54 190.87C284.38 190.87 285.21 190.81 286.03 190.69C286.86 190.56 287.67 190.37 288.46 190.12C289.26 189.87 290.03 189.56 290.78 189.19C291.52 188.83 292.24 188.4 292.92 187.92C295.78 185.97 297.26 182.39 297.38 177.2L297.38 171.42Z" />
	<path id="Layer" class="shp1" d="M394.46 140.92L410.2 140.92L419.25 183.68L428.51 140.92L444.7 140.92L427.47 200.3L411.51 200.3L402.2 157.05L392.77 200.3L376.65 200.3L359.97 140.92L376.64 140.92L385.9 183.52L394.46 140.92Z" />
	<path id="Layer" class="shp1" d="M323.94 200.3L308.41 200.3L308.41 120L323.94 120L323.94 200.3Z" />
	<path id="Layer" fill-rule="evenodd" class="shp0" d="M369.34 193.03C364.33 199.21 356.72 202.31 346.51 202.31C336.3 202.32 328.69 199.22 323.68 193.03C318.67 186.84 316.17 179.4 316.16 170.69C316.16 162.12 318.67 154.71 323.68 148.43C328.69 142.15 336.3 139.01 346.5 139.01C356.71 139.01 364.32 142.15 369.33 148.43C374.34 154.71 376.85 162.12 376.85 170.69C376.86 179.4 374.35 186.85 369.34 193.03ZM356.91 184.45C359.34 181.22 360.56 176.63 360.57 170.69C360.57 164.74 359.35 160.17 356.91 156.95C354.48 153.74 350.99 152.14 346.45 152.14C341.91 152.14 338.42 153.74 335.97 156.95C333.51 160.16 332.29 164.74 332.29 170.69C332.29 176.63 333.51 181.22 335.97 184.45C338.42 187.67 341.91 189.29 346.45 189.29C350.99 189.29 354.48 187.68 356.92 184.45L356.91 184.45Z" />
	<path id="Layer" class="shp2" d="M782.48 257.76C783.66 258.42 783.69 257.22 783.96 257.13C781.82 256.39 782.41 258 782.48 257.76Z" />
	<path id="Layer" class="shp2" d="M761.28 250.5L761.83 250.26L758.39 249.86L761.28 250.5L761.28 250.5Z" />
	<path id="Layer" class="shp2" d="M742.45 241.6C743.45 244.13 749.45 244.54 752.45 246.73L752.82 247.38L754.98 246.73C750.82 245 745.1 243.42 742.45 241.6Z" />
	<path id="Layer" class="shp2" d="M734.12 233.2C734.43 234.2 731.68 232.74 736.37 234.51C736.34 234.48 736.31 234.45 736.28 234.42C736.25 234.39 736.22 234.36 736.19 234.33C736.16 234.3 736.13 234.27 736.1 234.24C736.08 234.2 736.05 234.17 736.02 234.14C735.61 234 735.05 233.69 734.12 233.2Z" />
	<path id="Layer" class="shp2" d="M736 234.14C738 235.03 735 232.97 736 234.14Z" />
	<path id="Layer" class="shp2" d="M726.67 230.21L729.56 230.85C729.2 230.2 726.91 229.02 727.91 229.15C725.07 228.2 725.45 228.85 726.67 230.21Z" />
	<path id="Layer" class="shp2" d="M723.61 230.28L725.08 230.67C724.92 230.39 724.59 230.17 723.61 230.28Z" />
	<path id="Layer" class="shp2" d="M728.21 231.49L725.09 230.67C725.34 231.12 725.09 231.67 726.5 231.1C726 231.49 726.82 231.27 728.21 231.49Z" />
	<path id="Layer" class="shp2" d="M729.71 232.51C731.01 233.57 732.79 234.69 729.89 234.04C735 236.17 734.83 234.63 729.71 232.51Z" />
	<path id="Layer" class="shp2" d="M740.66 242.9L742.39 244.32L744.39 244.55C743.37 244.43 740.79 242.31 740.66 242.9Z" />
	<path id="Layer" class="shp2" d="M710.77 221.69C710.44 221.98 711.2 223.06 711.18 223.62L713.31 224.11C712.43 223.39 710.65 222.28 710.77 221.69Z" />
	<path id="Layer" class="shp2" d="M711.18 223.62L707.99 222.89C710.55 224.16 711.16 224.09 711.18 223.62Z" />
	<path id="Layer" class="shp2" d="M722.26 231.95L727.62 232.87L721.33 231.54L722.26 231.95L722.26 231.95Z" />
	<path id="Layer" class="shp2" d="M699.73 216.48L701.76 216.41L698.25 216.31L699.73 216.48L699.73 216.48Z" />
	<path id="Layer" class="shp2" d="M692.32 213.22C693.86 213.09 691.2 211.27 692.68 211.44C692.21 211.27 691.74 211.13 691.26 210.99C690.78 210.86 690.3 210.75 689.81 210.65C689.32 210.55 688.83 210.47 688.34 210.41C687.85 210.34 687.36 210.3 686.86 210.27C687.36 210.41 687.86 210.58 688.34 210.78C688.82 210.97 689.3 211.19 689.75 211.44C690.21 211.69 690.66 211.96 691.09 212.26C691.51 212.56 691.93 212.88 692.32 213.22L692.32 213.22Z" />
	<path id="Layer" class="shp2" d="M683.92 209.85C684.16 209.9 684.41 209.95 684.65 209.99C684.89 210.03 685.14 210.07 685.38 210.1C685.63 210.14 685.87 210.17 686.12 210.19C686.37 210.22 686.61 210.24 686.86 210.26C686.62 210.2 686.38 210.14 686.14 210.09C685.89 210.04 685.65 210 685.4 209.96C685.16 209.93 684.91 209.9 684.66 209.88C684.42 209.86 684.17 209.85 683.92 209.85L683.92 209.85Z" />
	<path id="Layer" class="shp2" d="M703.15 220.41C703.07 220.19 702.98 219.97 702.86 219.77C702.74 219.56 702.61 219.37 702.45 219.19C702.3 219.01 702.13 218.85 701.94 218.7C701.76 218.56 701.56 218.43 701.35 218.32L702.02 219.87L703.15 220.41Z" />
	<path id="Layer" class="shp2" d="M702 219.91L702 219.86L699.57 218.66L702 219.91Z" />
	<path id="Layer" class="shp2" d="M703.43 220.54L703.14 220.4C703.21 220.56 703.26 220.62 703.43 220.54Z" />
	<path id="Layer" class="shp2" d="M715.11 227.47C713.11 227.24 709.32 226.19 712.34 228.66C713.88 228.54 712.15 227.13 715.11 227.47Z" />
	<path id="Layer" class="shp2" d="M704.25 222.47L707.25 224.14C707.31 223.84 706.94 223.19 707.92 223.3L704.25 222.47Z" />
	<path id="Layer" class="shp2" d="M702.6 222.1L704.25 222.47L703.15 221.86L702.6 222.1L702.6 222.1Z" />
	<path id="Layer" class="shp2" d="M688.76 213.25C688.35 213.18 687.95 213.09 687.55 213C687.15 212.9 686.76 212.79 686.36 212.66C685.97 212.54 685.58 212.4 685.2 212.24C684.82 212.09 684.44 211.93 684.07 211.75C684.49 212 684.91 212.25 685.33 212.5C685.76 212.74 686.18 212.98 686.62 213.21C687.05 213.44 687.48 213.66 687.92 213.88C688.36 214.1 688.8 214.31 689.24 214.52C689.64 214.31 690.66 214.09 688.76 213.25Z" />
	<path id="Layer" class="shp2" d="M695.18 216.57L694.86 216.49C695 216.66 695.13 216.76 695.18 216.57Z" />
	<path id="Layer" class="shp2" d="M667.88 204.27L668.05 204.58L668.19 204.43L667.88 204.27L667.88 204.27Z" />
	<path id="Layer" class="shp2" d="M689.45 214.85C689.67 215.01 689.9 215.15 690.13 215.27C690.37 215.39 690.62 215.49 690.87 215.58C691.13 215.66 691.39 215.73 691.65 215.77C691.92 215.82 692.18 215.84 692.45 215.85C691.45 215.49 690.33 215.07 689.2 214.56C689.07 214.61 689 214.7 689.45 214.85Z" />
	<path id="Layer" class="shp2" d="M679.19 208.24C679.78 208.77 680.48 209.32 681.19 209.86C680.7 209.23 679.55 208.09 679.19 208.24Z" />
	<path id="Layer" class="shp2" d="M694.54 216L694.76 216C694.42 215.63 694.43 215.76 694.54 216Z" />
	<path id="Layer" class="shp2" d="M694.54 216C694.38 215.97 694.21 215.94 694.04 215.92C693.88 215.89 693.71 215.87 693.54 215.86C693.38 215.84 693.21 215.83 693.04 215.82C692.88 215.81 692.71 215.81 692.54 215.81C692.73 215.88 692.93 215.94 693.12 216.01C693.32 216.07 693.51 216.13 693.71 216.19C693.91 216.24 694.1 216.3 694.3 216.35C694.5 216.4 694.7 216.45 694.9 216.49C694.86 216.45 694.83 216.42 694.8 216.38C694.76 216.34 694.73 216.3 694.7 216.26C694.67 216.22 694.64 216.17 694.62 216.13C694.59 216.09 694.56 216.04 694.54 216L694.54 216Z" />
	<path id="Layer" class="shp2" d="M660 208.56C660.67 207.72 664.55 208.45 667.09 210.85C670.38 211.5 669.87 207.51 668.09 204.58C667.81 204.95 667.63 205.33 664.33 204.49C665.16 205.49 670.54 208.8 667.57 208.49C663.31 207.12 664.42 206.64 662.68 205.23C663.81 207.17 656.76 204.58 656.85 206.72L660.67 207.72C660.57 208 659.09 207.87 660 208.56Z" />
	<path id="Layer" class="shp2" d="M673.81 207.35L675.12 207.81C674.77 207.58 674.43 207.34 674.1 207.09C673.77 206.84 673.44 206.58 673.13 206.3C672.82 206.03 672.51 205.74 672.22 205.45C671.92 205.15 671.64 204.85 671.37 204.53C669.07 204.03 668.48 204.18 668.19 204.43L674.31 207.43L673.81 207.35Z" />
	<path id="Layer" class="shp2" d="M680.75 210.4C679.3 210.97 676.09 210.02 677.42 211.98C681.13 213.61 680.42 212.31 682.79 212.89C676.79 210.4 684.79 213.11 680.79 210.54C681.07 210.63 681.35 210.72 681.63 210.81C681.91 210.9 682.19 211 682.47 211.1C682.75 211.2 683.03 211.31 683.3 211.41C683.57 211.52 683.85 211.63 684.12 211.75C683.12 211.13 682.12 210.5 681.27 209.86L681.38 209.99L681.38 209.99C681.58 210.24 681.62 210.35 681.38 210.15C681.37 210.15 681.36 210.15 681.35 210.15C681.34 210.15 681.33 210.15 681.32 210.15C681.3 210.15 681.29 210.15 681.28 210.15C681.27 210.15 681.26 210.15 681.25 210.15C681.22 210.18 681.19 210.21 681.15 210.24C681.12 210.26 681.08 210.29 681.04 210.31C681 210.33 680.96 210.35 680.92 210.37C680.88 210.38 680.84 210.4 680.8 210.41C679.18 209.41 680.65 210.02 681.25 210.15C681.25 210.15 681.36 210.08 681.39 210.03L681.39 210.03L675.18 207.85C675.63 208.09 676.08 208.33 676.54 208.56C677 208.79 677.46 209.01 677.92 209.22C678.39 209.43 678.85 209.64 679.33 209.83C679.8 210.03 680.27 210.22 680.75 210.4L680.75 210.4Z" />
	<path id="Layer" class="shp2" d="M708.14 229.39C708 229.21 708.04 229.14 708.06 229.06C707.62 229 707.44 229 708.14 229.39Z" />
	<path id="Layer" class="shp2" d="M706 227.64C706.21 227.62 706.42 227.62 706.63 227.64C706.84 227.65 707.04 227.69 707.25 227.74C707.45 227.79 707.65 227.85 707.84 227.93C708.04 228.01 708.22 228.11 708.4 228.22C709.47 229.09 708.16 228.71 708.07 229.08C709.07 229.2 711.37 229.72 708.95 227.99L708.47 227.93C706.25 226.46 703.78 223.75 704.26 223.81C704.33 224.16 704.41 224.5 704.52 224.84C704.63 225.18 704.76 225.51 704.9 225.83C705.05 226.15 705.21 226.46 705.4 226.77C705.58 227.07 705.78 227.36 706 227.64L706 227.64Z" />
	<path id="Layer" class="shp2" d="M693.09 219.19L687.91 217.4L690.02 219.46L690.14 218.87C692.86 220.37 692.55 219.43 693.09 219.19Z" />
	<path id="Layer" class="shp2" d="M667.54 203.5L668.7 202.72L665.13 202.94L667.54 203.5L667.54 203.5Z" />
	<path id="Layer" class="shp2" d="M661.04 200.67L661.71 199.84L659.75 199.63L661.04 200.67L661.04 200.67Z" />
	<path id="Layer" class="shp2" d="M285.32 63.66L283.72 63.33C283.85 63.37 283.98 63.4 284.11 63.44C284.25 63.47 284.38 63.5 284.51 63.53C284.65 63.56 284.78 63.58 284.92 63.6C285.05 63.62 285.18 63.64 285.32 63.66L285.32 63.66Z" />
	<path id="Layer" class="shp2" d="M296.09 68L296.54 67.63C295.94 67.72 295.65 67.83 296.09 68Z" />
	<path id="Layer" class="shp2" d="M501 131.89C499.19 130.11 497.3 127.77 497.14 128.96L497.39 130.28C497.71 130.36 498.03 130.45 498.34 130.55C498.66 130.66 498.97 130.78 499.27 130.92C499.57 131.05 499.87 131.2 500.16 131.36C500.45 131.53 500.73 131.7 501 131.89Z" />
	<path id="Layer" class="shp2" d="M387.1 96.14L387.62 96.7L389.48 96.22L387.1 96.14Z" />
	<path id="Layer" class="shp2" d="M383.92 100L381.29 98.24C381.5 98.41 381.7 98.57 381.92 98.72C382.13 98.88 382.35 99.03 382.56 99.18C382.78 99.33 383.01 99.47 383.23 99.61C383.46 99.74 383.69 99.87 383.92 100L383.92 100Z" />
	<path id="Layer" class="shp2" d="M226.35 40.05L224.18 40.36C226.85 41.53 225.91 40.48 226.35 40.05Z" />
	<path id="Layer" class="shp2" d="M594.6 171.35C594.26 171.1 593.91 170.85 593.56 170.61C593.21 170.38 592.86 170.15 592.5 169.93C592.13 169.71 591.77 169.49 591.4 169.29C591.03 169.08 590.65 168.89 590.27 168.7C592.24 170.28 593.64 172 594.6 171.35Z" />
	<path id="Layer" class="shp2" d="M294.05 54.14C293.05 53.97 292.59 54.03 292.52 54.28C293.53 54.47 294.14 54.48 294.05 54.14Z" />
	<path id="Layer" class="shp2" d="M584.93 166.39C585.21 166.64 585.51 166.83 585.8 167.06C586.18 167.16 586.57 167.27 586.94 167.39C587.32 167.51 587.7 167.64 588.07 167.78C588.45 167.91 588.82 168.06 589.18 168.21C589.55 168.37 589.91 168.53 590.27 168.7C589.9 168.37 589.51 168.07 589.1 167.8C588.68 167.53 588.25 167.3 587.79 167.1C587.34 166.91 586.87 166.75 586.39 166.63C585.91 166.51 585.42 166.43 584.93 166.39Z" />
	<path id="Layer" class="shp2" d="M63.2 122.73C63.05 122.83 62.91 122.97 62.77 123.05C62.85 123.18 63 123 63.2 122.73Z" />
	<path id="Layer" class="shp2" d="M12.06 167.39C12.42 166.83 13.06 166 13.72 165.2C13.56 165.36 13.41 165.53 13.26 165.71C13.11 165.88 12.96 166.06 12.82 166.24C12.69 166.43 12.55 166.62 12.42 166.81C12.3 167 12.18 167.19 12.06 167.39Z" />
	<path id="Layer" class="shp2" d="M635.28 188.43C636.68 188.98 635.55 188.43 635.28 188.43Z" />
	<path id="Layer" class="shp2" d="M640.09 195.53C639.75 195.53 639.46 195.53 639.31 195.79C639.36 195.74 639.42 195.7 639.48 195.66C639.54 195.63 639.6 195.6 639.67 195.58C639.74 195.55 639.81 195.54 639.88 195.53C639.95 195.52 640.02 195.52 640.09 195.53Z" />
	<path id="Layer" class="shp2" d="M568.38 167L568.26 166.95C568.58 167.29 568.53 167.22 568.38 167Z" />
	<path id="Layer" class="shp2" d="M637.13 189.83C637 189.73 636.87 189.63 636.74 189.54C636.61 189.44 636.48 189.35 636.34 189.25C636.21 189.16 636.07 189.07 635.94 188.99C635.8 188.9 635.66 188.81 635.52 188.73C635.65 188.83 635.78 188.93 635.91 189.02C636.04 189.12 636.17 189.21 636.31 189.3C636.44 189.4 636.58 189.49 636.72 189.57C636.85 189.66 636.99 189.75 637.13 189.83L637.13 189.83Z" />
	<path id="Layer" class="shp2" d="M637.07 189.21L638.22 189.85C638.47 189.76 638.37 189.58 637.07 189.21Z" />
	<path id="Layer" class="shp2" d="M633.34 187.62C633.53 187.7 633.71 187.78 633.9 187.87C634.08 187.96 634.26 188.05 634.44 188.14C634.62 188.23 634.8 188.33 634.98 188.43C635.16 188.52 635.34 188.63 635.51 188.73C635.27 188.54 635.19 188.43 635.27 188.43L633.34 187.62Z" />
	<path id="Layer" class="shp2" d="M138.42 25.4L138.13 25.58C137.54 27.05 137.9 26.49 138.42 25.4Z" />
	<path id="Layer" class="shp2" d="M460.27 128.79C460.34 128.79 460.38 128.79 460.45 128.79L460.26 128.67L460.27 128.79Z" />
	<path id="Layer" class="shp2" d="M454.93 127.67C455.38 127.55 455.84 127.49 456.31 127.47C456.78 127.45 457.24 127.49 457.7 127.58C458.16 127.66 458.61 127.8 459.04 127.98C459.46 128.17 459.87 128.4 460.25 128.67L459.75 124.97L454.93 127.67Z" />
	<path id="Layer" fill-rule="evenodd" class="shp2" d="M259.44 53.37C259.79 53.51 260.14 53.65 260.49 53.78C260.84 53.91 261.2 54.04 261.56 54.15C261.91 54.27 262.27 54.38 262.63 54.49C262.99 54.6 263.36 54.7 263.72 54.79C259.7 51.49 254.64 51.43 251.79 51.2C250.23 49.98 254.21 49.33 248.99 47.73C241.67 45.34 249.3 50.69 244.9 49.26L242.56 46.26C236.59 45.22 233.08 42.29 228.65 40.09C228.49 40.03 228.33 39.98 228.17 39.94C228 39.89 227.83 39.86 227.67 39.84C227.5 39.81 227.33 39.8 227.16 39.79C226.99 39.79 226.82 39.8 226.65 39.81C222.15 36.98 215.86 37.08 212.49 34.98C213.49 34.99 210.88 33.03 210.62 32.44L203.8 30.82C206.7 31.49 207 30.5 207.9 29.78C205.81 29.06 204.62 29.23 203.18 28.78C204.17 28.79 205.18 28.78 204.27 27.9L196.73 26.77C196.86 26.87 197 26.97 197.14 27.06C197.28 27.15 197.43 27.24 197.57 27.33C197.72 27.41 197.87 27.49 198.02 27.56C198.14 27.62 198.26 27.68 198.38 27.73C196.61 27.05 192.76 26.24 190.63 24.55C190.99 24.25 191.97 24.22 192.33 23.91C193.99 25.78 195.53 25.3 196.89 24.99C192.05 23.31 195.76 24.27 193.76 22.69C190.36 21.43 188.49 22.27 189.07 23.43C185.39 21.68 184.26 20.96 180.01 20.68L181.21 19.56L177.46 18.79L180.94 18.09C174.27 14.88 178.91 19.99 171.43 16.83L171.77 15.61C168.62 15.23 167.06 16.9 165.12 14.9C162.03 14.9 169.6 17.9 162.75 16.41C162.34 16.11 161.92 15.83 161.48 15.56C161.05 15.3 160.61 15.05 160.15 14.82C159.7 14.59 159.24 14.38 158.76 14.19C158.29 14 157.81 13.83 157.33 13.68C155.12 13.77 158.37 15.4 159.9 15.65C159.96 15.66 160.03 15.67 160.09 15.68C160.03 15.67 159.97 15.67 159.9 15.65C159.5 15.6 159.1 15.53 158.7 15.44C158.24 15.34 157.78 15.22 157.33 15.09C156.88 14.95 156.43 14.8 155.99 14.62C155.55 14.45 155.12 14.26 154.7 14.05C154.09 13.56 154.04 13.05 153.62 12.48C153.53 12.33 153.43 12.19 153.32 12.05C153.22 11.91 153.1 11.78 152.97 11.66C152.85 11.54 152.71 11.42 152.57 11.32C152.43 11.22 152.28 11.12 152.13 11.04C152.09 11.02 152.04 10.99 152 10.97C151.95 10.95 151.91 10.93 151.86 10.92C151.82 10.9 151.77 10.89 151.72 10.87C151.68 10.86 151.63 10.85 151.58 10.84C151.54 10.88 151.51 10.91 151.47 10.95C151.43 10.99 151.4 11.03 151.36 11.07C151.33 11.11 151.3 11.15 151.26 11.19C151.23 11.23 151.2 11.28 151.17 11.32C151.08 11.44 151 11.57 150.92 11.7C150.84 11.83 150.76 11.96 150.69 12.09C150.62 12.23 150.55 12.36 150.48 12.5C150.42 12.64 150.36 12.78 150.3 12.92C151.15 12.6 151.25 13.45 151.54 13.87C151.67 14.09 151.83 14.23 152.04 14.23C152.07 14.23 152.1 14.22 152.13 14.22C152.17 14.21 152.2 14.2 152.23 14.19C152.26 14.17 152.28 14.16 152.31 14.14C152.34 14.13 152.37 14.11 152.39 14.09C152.54 14.04 152.62 13.71 152.94 13.86C152.69 13.9 152.59 14.21 152.36 14.3C152.13 14.39 151.82 14.44 151.48 14.56C151.43 14.57 151.38 14.59 151.33 14.61C151.28 14.63 151.23 14.65 151.19 14.67C151.14 14.7 151.09 14.72 151.05 14.75C151 14.78 150.96 14.81 150.92 14.84C150.83 14.92 150.75 15 150.66 15.08C150.57 15.16 150.49 15.24 150.41 15.33C150.32 15.41 150.24 15.49 150.16 15.58C150.08 15.67 150 15.75 149.92 15.84C149.76 16.02 149.6 16.21 149.45 16.41C149.31 16.61 149.17 16.81 149.04 17.02C148.91 17.23 148.8 17.45 148.69 17.67C148.58 17.89 148.49 18.12 148.4 18.35L148.77 15.35C148.58 15.61 148.4 15.88 148.23 16.15C148.06 16.43 147.9 16.71 147.75 16.99C147.6 17.28 147.45 17.57 147.32 17.86C147.19 18.16 147.07 18.46 146.96 18.76L146.2 17.76C144.82 22.93 139.68 24.13 140.07 28.19C139.6 25.2 137.88 31.09 135.98 32.03C137.27 27.91 143.25 23.14 141.98 21.41C140.31 22.46 140.05 24.41 138.44 25.41C138.59 25.13 138.73 24.84 138.86 24.55C138.98 24.26 139.1 23.97 139.21 23.67C139.31 23.37 139.41 23.06 139.49 22.76C139.58 22.45 139.65 22.14 139.71 21.83C134.91 25.86 134.58 30.13 132.64 33.37L136.43 27.95C137.7 29.69 134.83 30.48 134.92 32.95C131.98 34.8 131.6 37.83 129.37 39.48C129.8 38.96 129.71 38.79 130.08 38.31C125.62 43.81 121.77 43.24 119.93 45.41C117.95 47.41 115.47 52.26 117.37 51.32C116.37 53.47 122.88 43.52 122.37 48.41C117.37 49.62 117.94 55.7 110.65 61.29C112.27 57.55 107.84 61.96 109.4 58.72C106.91 62.18 107.17 62.63 106.65 64.63L105.09 65.01C103.26 70.71 105.76 67.24 101.34 74.52C102.53 71.85 98.11 76.26 98.94 74.15C98.59 74.55 98.25 74.96 97.93 75.39C97.61 75.82 97.31 76.26 97.03 76.72C96.75 77.17 96.48 77.64 96.24 78.11C96 78.59 95.78 79.07 95.58 79.57L95.67 79.24C90.68 86.18 90.31 83.88 86.25 90.6L87.19 90.37C82 99.24 73.08 108.61 67 117.24L69.4 114.93C68.26 116.22 65.68 120.9 63.13 122.73C63.23 122.55 63.33 122.38 63.43 122.21C63.54 122.04 63.64 121.87 63.75 121.7C63.87 121.54 63.98 121.37 64.1 121.21C64.22 121.05 64.34 120.89 64.46 120.73C63.89 120.39 62.33 120.77 60.6 122.63L60.76 124.02L59.51 124.32C57.06 127.32 61.34 124.32 58.89 127.32C55.24 127.25 48.11 139.96 44.04 140.96C44 144.3 48.88 135.48 48.53 138.9C48.22 139.08 47.92 139.28 47.62 139.48C47.33 139.69 47.04 139.91 46.76 140.13C46.48 140.36 46.21 140.6 45.95 140.85C45.69 141.1 45.44 141.35 45.2 141.62L46.71 141.73C38.8 150.37 35.16 153.14 28.8 161.37L28.86 160.88C26.15 163.45 25.06 165.1 24.86 167.1C23.92 167.33 25.37 165.07 24.06 165.87C22.43 172.93 14.01 174.52 13.24 179C11.61 177.02 4.37 182.15 5.08 178.15L3.63 180.41C2.9 178.69 8.89 173.88 8.51 171.6L15.19 166.15C14.54 165.96 14.67 164.3 13.67 165.22C14.96 163.58 16.04 162.11 13.62 163.67C29.63 150.69 39.5 132.08 53.77 118.08C54.5 116.95 53.56 117.17 52.93 117.33C56.48 115.51 54.48 114.09 55.57 112.4L60.74 109.71C61.62 107.59 60 108.46 59.74 108.05C65.77 99.9 73.74 93.67 77.85 86.45C80.14 84.95 78.9 88.11 81.29 85.62C76.69 87.65 85.91 78.01 83.9 78.28C87.85 76.95 91.85 69.2 93.57 72.5C96.33 69.43 94.57 68.91 93.57 69.63C96.69 66.01 99.14 63.02 100.75 59.29C103.02 57.78 113.68 42.05 118.48 40.19C115.52 41.26 118.09 39.36 119.25 36.76L116.49 37.76L120.59 32.97C121.29 31.88 121.57 31.64 121.67 31.73C122.41 30.95 122.2 32.48 124.2 30.62C126.98 27.34 126.47 26.67 127.35 24.34L126.76 24.71L128.48 22.36C129.88 20.73 124.88 29.2 129.88 24.27C129.62 23.92 130.69 19.47 132.69 18.7C130.42 21.41 131.52 21.73 132.69 21L135.93 17.19L133.4 17.25C135.68 14.49 138.05 11.75 140.46 9L145.22 3.54C146.12 2.48 147 1.48 147.91 0.48L152 1.4L156 2.31C156.74 2.47 157.24 2.6 157.66 2.72L159.05 3.09C160.9 3.6 162.77 4.04 164.61 4.6L175.77 7.82C175.09 9.32 186.22 11.18 184.09 13.18L183.6 12.77C179.94 11.81 184 14.94 187 15.7C184.23 13.88 193.27 15.34 186 12.34L192.12 13.27C196.95 9.96 207.05 19.34 216.03 21.57C215.97 21.56 215.91 21.55 215.85 21.55C215.76 21.55 215.66 21.55 215.57 21.57C215.48 21.59 215.4 21.61 215.31 21.65C215.23 21.68 215.15 21.73 215.07 21.78C223.19 23.55 231.31 30.18 233.31 30.24L233.45 31.72C240.64 32.67 241.4 32.86 248.64 36.86C248.45 37.01 247.43 36.98 248.52 37.74C250.72 37.64 252.93 37.54 258 40L257.61 40.11L265.82 43.33C264.23 47.02 280.7 46.86 281.52 51.86C283.52 51.43 289.65 53.52 292.52 54.07C292.48 54.24 292.58 54.47 292.95 54.82C296.9 54.06 301.79 59.05 305.37 60.21C307.84 60.63 307.11 59.57 306.37 58.57C310.25 61.96 319.51 61.64 320.89 62.96C324.15 64.4 321.56 64.88 322.15 66.06C327.21 67.6 322.66 62.38 328.66 66.38C327.83 66.27 326.36 65.84 326.83 66.27C329.23 67.55 332.1 73.58 334.95 73.68L333.54 72.37C338.51 73.18 343.29 79.57 344.99 77.32L344.99 75.98C352.35 80.54 348.53 76.79 356.08 81.19L355.91 81.35C359.51 82.42 360.87 84.6 363.3 83.35L362.19 82.64C366.61 84.16 366.95 84.41 371.36 86.16C371.95 86.17 374.21 86.69 374.68 87.32C375.47 85.82 385.28 90.43 387.23 91.26C383.62 90.19 385.04 91.49 385.8 92.49C388.37 91.97 389.84 92.36 392.37 94.36C393.51 92.55 394.86 90.66 400.58 92.66C399.58 92.63 398.17 92.28 398.58 92.9C398.99 93.52 400.49 93.58 400.99 93.58C401.41 94.19 399.47 93.83 399.85 94.75C404.33 94.29 406.52 97.07 412.33 98.46C410.35 98.4 411.73 99.35 412.11 100.26C413.36 98.2 418.95 105.01 417.95 101.36C428.2 107.11 445.54 111.78 449.08 115.22C449.92 116.45 453.43 116.3 455.34 116.98L454.71 117.85C460.67 118.1 459.08 118.76 465.98 119.34C462.96 119.5 463.83 120.44 466.08 122.34L471.08 121.96L471.33 123.78C471.84 123.85 472.34 123.94 472.83 124.06C473.33 124.18 473.81 124.32 474.29 124.5C474.77 124.67 475.24 124.87 475.7 125.09C476.14 125.31 476.57 125.55 476.98 125.81C479.34 124.85 485.9 127.55 487.34 127.07C488.5 129.84 492.69 128.55 493.34 131C493.56 131 493.77 131 493.99 131C494.21 131.01 494.42 131.02 494.64 131.04C494.86 131.05 495.07 131.07 495.29 131.1C495.5 131.13 495.72 131.16 495.93 131.2C495.33 129.94 495.38 128.83 496.93 129.94L497.35 130.06L497.63 131.53C498.04 131.62 498.46 131.72 498.87 131.83C499.28 131.94 499.69 132.05 500.09 132.17C500.5 132.29 500.91 132.42 501.31 132.55C501.71 132.68 502.11 132.82 502.51 132.97C502.37 132.87 502.23 132.78 502.1 132.67C501.96 132.57 501.83 132.47 501.7 132.36C501.57 132.25 501.45 132.14 501.32 132.02C501.2 131.91 501.08 131.79 500.96 131.67C501.65 132.1 502.25 132.64 502.85 133.1L503.47 133.36C503.44 133.36 503.4 133.35 503.37 133.35C503.33 133.34 503.3 133.34 503.27 133.33C503.23 133.32 503.2 133.31 503.17 133.3C503.13 133.29 503.1 133.28 503.07 133.27C503.34 133.48 503.62 133.66 503.91 133.83C504.2 134 504.5 134.14 504.81 134.27C505.12 134.4 505.44 134.5 505.77 134.58C506.1 134.66 506.43 134.72 506.76 134.76C512.16 138.97 521.35 137.74 527.06 142.97C526.15 142.3 524.77 141.61 524.22 141.87C529.89 144.05 534.78 147.99 538.69 148.59L538.89 147.4C539.82 147.64 540.75 147.89 541.67 148.17C542.59 148.44 543.5 148.73 544.42 149.03C545.33 149.33 546.23 149.66 547.13 149.99C548.03 150.33 548.92 150.68 549.81 151.05L550.51 149.9C555.14 152.34 566.27 154.77 568.14 158.54C569.74 158.07 574.65 161.69 577.51 162.54L577.8 163.78C578.43 164.12 579.07 164.44 579.72 164.74C580.38 165.04 581.04 165.31 581.7 165.57C582.37 165.83 583.05 166.07 583.73 166.28C584.42 166.5 585.1 166.7 585.8 166.87C592.11 171.97 599.58 172.99 605.8 175.87L605.74 176.17L612.38 178.32C610.34 178.38 613.88 178.3 615.69 179.38C616.37 179.57 617.04 179.79 617.7 180.04C618.36 180.3 619.01 180.58 619.64 180.9C620.27 181.22 620.88 181.58 621.48 181.96C622.07 182.34 622.65 182.75 623.2 183.19L627.2 185.05C622.43 183.66 626.92 186.54 626.69 187.73L629.69 188.03C630.45 189.01 627.65 188.12 629.45 189.21C631.43 189.41 636.52 191.74 638.61 191.35C638.53 191.2 638.44 191.06 638.35 190.93C638.26 190.79 638.15 190.66 638.04 190.54C637.93 190.42 637.82 190.3 637.7 190.19C637.57 190.08 637.44 189.98 637.31 189.88C637.06 189.88 637.08 189.88 637.25 189.88L637.1 189.74L637.3 189.87C637.38 189.87 637.45 189.87 637.53 189.86C637.6 189.86 637.68 189.85 637.75 189.84C637.83 189.83 637.9 189.82 637.98 189.81C638.05 189.79 638.13 189.78 638.2 189.76C641.3 191.45 640.32 190.47 640.43 189.94C643.19 193.13 645.62 193.07 647.48 195.86C645.93 192.98 656.08 199.94 654.75 196.89C656.64 199.82 656.56 197.81 657.64 200.05C654.04 197.88 649.53 197.71 646.13 197.05L648.68 199.44C645.85 200.44 642.24 195.6 640.15 195.44C641.49 195.53 643.81 197.04 643.97 197.6L643.84 195.86C639.81 193.27 635.85 192.92 632.46 192.27C635.13 194.06 628.56 191.56 630.19 193.56L632.55 194.41C633.37 195.39 630.95 194.85 629.48 194.7C622.76 190.36 609.1 185.43 607.03 183.12C607.46 183.39 607.9 183.64 608.35 183.87C608.8 184.09 609.27 184.29 609.74 184.46C610.22 184.64 610.7 184.78 611.19 184.9C611.68 185.02 612.18 185.12 612.68 185.18L609.56 183.06C612.34 184.23 613.93 186.5 618.21 187.82C617.95 186.59 621.46 186.62 618.95 183.96C611.81 179.04 611.48 183.53 602.26 179.04C601.26 178.95 604.89 178.38 599.67 176.69C592.97 174.87 587.43 175.01 586.56 177.01C589.44 177.53 595.27 178.7 595.44 180.53C592.54 179.97 587.82 178.33 587.17 179.18C585.18 176.28 592.41 180.87 589.41 177.87C589.1 177.75 588.79 177.64 588.47 177.56C588.15 177.47 587.82 177.4 587.49 177.34C587.17 177.29 586.84 177.25 586.51 177.23C586.17 177.21 585.84 177.21 585.51 177.22C587.06 177.05 584.36 175.3 583.98 174.67C577.96 172.06 574.81 169.81 568.41 166.87C568.17 166.48 567.69 165.63 568.06 165.29C564.69 164.41 559.09 165.05 559.82 166.62C556.03 165.11 556.18 164.22 552.82 163.35C557.22 167.03 551.94 162.68 550.71 164.1C547.4 162.93 549.92 162.82 548.59 161.82C547.97 161.77 546.45 161.78 546.18 162.19C544.68 160.1 551.41 160.53 549.68 158.1C548.41 156.51 542.13 151.95 541.68 151.62C539.55 152.37 537.61 158.32 539.15 161.14C538.51 162 536.53 158.84 535.15 158.14C531.64 154.86 528.32 156.74 525.15 154.74L528.15 154.93C527.75 154.3 522.46 152.75 521.46 152.99C521.56 152.42 525.22 151.28 523.92 149.99C517.87 147.18 510.81 147.81 510.53 149.61L520.66 151.76C520.44 153.25 513.41 150.38 513.13 152.18L504.62 148.18C505.74 148.58 509.24 149.53 508.24 148.25C504.47 146.82 506.4 147.23 504.15 145.6C505.69 145.55 507.23 145.46 508.76 145.34C510.29 145.22 511.83 145.07 513.35 144.88C514.88 144.69 516.41 144.47 517.92 144.22C519.44 143.96 520.95 143.68 522.46 143.36L517.59 142.43L516.79 141.17C510.47 139.91 503.02 143.12 500.92 143.91C497.68 142.22 500.05 139.77 501.05 139.52C494.47 136.72 492.86 141.01 486.32 138.01L488.59 139.63C486.9 139.29 481.38 136.45 481.79 137.23C480.84 136.03 480.33 133.97 481.58 133.72L475.06 134.14C475.95 133.98 476.27 131.62 476.79 131.35C474.53 130.38 471.88 132.3 472.88 133.34C469.03 130.01 469.75 131.31 466.79 127.9C465.34 127.53 465.96 130.45 466.87 131.09C466.3 131.01 465.73 130.89 465.17 130.75C464.61 130.6 464.06 130.43 463.51 130.23C462.97 130.03 462.44 129.81 461.92 129.55C461.4 129.3 460.89 129.02 460.4 128.71C465.95 129.65 463.82 123.96 465.48 122.54L451.69 125.35C451.91 125.18 452.13 124.99 452.34 124.8C452.55 124.61 452.75 124.41 452.94 124.2C453.14 123.99 453.32 123.78 453.49 123.55C453.67 123.33 453.83 123.1 453.99 122.86C452.29 124.59 439.42 120.07 433.29 117.45L434.23 117.78C435.77 117.53 430.61 114.94 428.14 114.86C428.67 114.57 429.13 114.89 430.08 115.22C426.49 112.09 423.48 116.38 419.92 112.94C423.74 114.57 424.81 114.01 424.92 113.11C421.48 112.69 414.46 109.18 415.08 112.18C413.24 110.92 411.3 110.55 411.94 109.37L403.63 107.96C404.3 107.92 405.06 107.38 402.9 106.39C407.13 108.31 412.17 107.58 413.86 110.03C414.54 108.55 413.21 107.13 415.77 106.61C407.09 104.23 401.57 105.12 395.57 104.93L388.57 101.09L388 101.67L387.36 99.44C386.29 99.55 385.55 99.66 385.44 99.44C385.33 99.22 385.65 99.07 386.11 98.95C385.95 98.9 385.78 98.86 385.62 98.83C385.45 98.8 385.29 98.77 385.12 98.75C384.95 98.72 384.78 98.71 384.62 98.7C384.45 98.69 384.28 98.69 384.11 98.69C384.16 97.69 385.86 97.13 387.61 96.69L389.29 98.42C391.06 98.07 392.45 97.55 390.64 96.22L389.46 96.22C390.63 95.9 391.4 95.57 390.81 95.06L384.81 93.81C385.36 94.29 386.14 95.13 387.05 96.13C383.08 95.97 378.51 95.86 381.24 98.22L377.31 95.59C371.61 95.42 372.62 95.42 365.97 94.42C365.86 93.69 367.69 93.78 366.75 92.92C361.52 93.24 356.65 86.55 355.02 87.92C351.23 86.99 352.94 88.87 350.45 88.49C350.64 88.34 351 88.03 350.34 87.75L347.13 87.97C346.23 87.1 350.01 88.05 347.13 86.34C341.5 85.29 338.15 84.77 333.97 82.49C327.58 80.39 335.71 86.02 330.5 83.74C330.11 82.42 329.89 80.94 326.64 79.52C324.63 79.56 324.55 80.44 321.41 79.76L322.2 78.26C319.43 77.28 317.12 76.71 317.56 75.52C317.11 75.5 316.66 75.45 316.22 75.37C315.78 75.29 315.34 75.18 314.91 75.04C314.48 74.9 314.06 74.74 313.66 74.55C313.25 74.35 312.86 74.13 312.48 73.89C308.04 73.1 314.3 78.25 315.04 79.25C311.4 76.46 308.31 76.04 306.71 73.25L310.49 74.25C303.53 69.31 302.3 73.61 300.03 68.88C302.62 70.06 306.12 70.46 304.9 68.99L300.76 68.28C300.49 67.69 303.06 68.86 301.49 67.69C301.07 67.66 300.66 67.64 300.24 67.63C299.82 67.61 299.41 67.61 298.99 67.61C298.57 67.61 298.16 67.61 297.74 67.63C297.32 67.64 296.91 67.66 296.49 67.69L296.58 67.61L290.1 65.32C290.99 65.56 291.23 65.19 290.13 64.69L285.28 63.69C286.82 63.82 285.6 62.77 283.68 61.69C278.06 58.89 277.6 63.3 273.73 59.89C274.37 60.19 274.56 60.04 275.21 60.34L273.21 58.7C271.36 61.82 259.44 53.36 257.56 56.45C254.82 53.78 257.67 55.57 262.56 55.78L259.44 53.37ZM198.38 27.73C198.41 27.74 198.45 27.76 198.48 27.77C198.45 27.76 198.41 27.74 198.38 27.73ZM216.03 21.57C216.05 21.57 216.06 21.58 216.08 21.58C216.06 21.58 216.05 21.57 216.03 21.57ZM289.58 65.14L290.1 65.32C289.95 65.28 289.77 65.22 289.58 65.14ZM473.03 133.47C472.97 133.43 472.93 133.39 472.88 133.34C472.93 133.38 472.98 133.43 473.03 133.47ZM474.93 134.15L475.06 134.14C475.02 134.15 474.97 134.15 474.93 134.15ZM481.93 133.7C481.8 133.69 481.68 133.7 481.58 133.72L481.93 133.7ZM643.98 197.69C643.99 197.66 643.98 197.63 643.97 197.6L643.98 197.69ZM647.75 196.29C647.66 196.14 647.57 196 647.48 195.86C647.55 195.98 647.64 196.13 647.75 196.29ZM476.97 125.82C476.1 125.52 476.5 125.84 476.5 126.12C476.63 125.99 476.78 125.89 476.97 125.82ZM477.03 125.84C477.01 125.83 477 125.82 476.98 125.81L476.97 125.82C476.99 125.82 477.01 125.83 477.03 125.84ZM118.61 40.14C118.57 40.15 118.53 40.17 118.48 40.19C118.53 40.17 118.57 40.16 118.61 40.14ZM83.57 78.38C83.7 78.33 83.82 78.3 83.9 78.28C83.79 78.32 83.68 78.35 83.57 78.38ZM69.67 114.67L69.4 114.93C69.5 114.81 69.59 114.73 69.67 114.67ZM312.44 73.82C312.42 73.82 312.4 73.81 312.37 73.81C312.38 73.82 312.39 73.82 312.4 73.83L312.44 73.82ZM312.37 73.81C310.79 72.75 310.14 71.77 308.5 72.65C308.97 73.62 311.23 73.67 312.37 73.81ZM394.07 101.31C393.83 101.14 393.59 100.99 393.33 100.84C393.08 100.7 392.82 100.56 392.56 100.44C392.29 100.32 392.03 100.2 391.75 100.1C391.48 100 391.2 99.92 390.92 99.84C392.11 100.79 393.2 101.42 394.11 101.31L394.07 101.31ZM619.81 182.62C618.36 181.71 617.64 181.18 619.73 182.62L619.81 182.62ZM624.28 185.19C624.82 185.19 624.86 185.06 624.73 184.81C624.49 184.8 624.26 184.77 624.02 184.72C623.79 184.68 623.56 184.62 623.34 184.54C623.11 184.46 622.89 184.37 622.68 184.26C622.47 184.16 622.27 184.04 622.07 183.9C622.23 184.35 622.73 184.83 624.24 185.19L624.28 185.19ZM122.59 31.87L121.71 32.43C121.6 33.15 121.46 33.84 122.59 31.87ZM402.86 106.37C402.87 106.38 402.89 106.38 402.9 106.39C402.89 106.38 402.87 106.38 402.86 106.37ZM216.12 21.59C216.11 21.59 216.1 21.58 216.08 21.58C216.1 21.58 216.11 21.59 216.12 21.59ZM130.16 38.22C130.13 38.25 130.11 38.28 130.08 38.31C130.11 38.28 130.13 38.25 130.16 38.22ZM203.62 30.78L203.8 30.82C203.74 30.81 203.68 30.79 203.62 30.78Z" />
	<path id="Layer" class="shp2" d="M384.31 99.55C384.27 99.49 384.23 99.43 384.2 99.37C384.17 99.3 384.15 99.23 384.13 99.16C384.12 99.09 384.1 99.02 384.1 98.95C384.1 98.88 384.1 98.81 384.11 98.74C383.63 98.8 383.54 99 384.31 99.55Z" />
	<path id="Layer" class="shp2" d="M226.76 40L226.61 39.92C226.59 39.93 226.56 39.93 226.54 39.94C226.52 39.95 226.5 39.96 226.48 39.97C226.45 39.98 226.43 40 226.41 40.01C226.4 40.03 226.38 40.04 226.36 40.06L226.76 40Z" />
	<path id="Layer" class="shp2" d="M547.79 163.66C547.64 163.57 547.49 163.48 547.34 163.37C547.19 163.27 547.05 163.16 546.92 163.05C546.78 162.93 546.65 162.81 546.53 162.68C546.41 162.55 546.29 162.42 546.18 162.28C546 162.54 546.35 163 547.79 163.66Z" />
	<path id="Layer" class="shp2" d="M649.69 194.33L646.59 193.28C646.82 193.37 647.05 193.47 647.27 193.58C647.49 193.7 647.71 193.82 647.92 193.95C648.13 194.09 648.33 194.23 648.53 194.38C648.72 194.54 648.91 194.7 649.09 194.87C649.15 194.57 648.76 193.92 649.69 194.33Z" />
	<path id="Layer" class="shp2" d="M672.13 213.22C672.63 213.28 673.05 213.63 673.55 213.68L673.68 213.09C671.82 212.28 670.33 212.12 672.13 213.22Z" />
	<path id="Layer" class="shp2" d="M650.69 199.41C650.48 200.49 652.49 201 654.69 201.77C654.66 201.76 654.63 201.75 654.6 201.73C654.56 201.72 654.53 201.71 654.5 201.69C654.47 201.68 654.44 201.66 654.41 201.65C654.38 201.63 654.35 201.62 654.32 201.6C655.52 200.52 653.1 200 650.69 199.41Z" />
	<path id="Layer" class="shp2" d="M655.15 202C655.32 202.06 655.48 202.12 655.64 202.19C655.81 202.25 655.97 202.32 656.13 202.39C656.29 202.46 656.45 202.54 656.61 202.61C656.77 202.69 656.92 202.77 657.08 202.85C657.57 202.37 656.35 202.33 655.15 202Z" />
	<path id="Layer" class="shp2" d="M630.41 187.19C631.28 187.88 631.59 186.19 631.97 186.87C633.63 186.14 624.71 185.41 630.41 187.19Z" />
	<path id="Layer" class="shp2" d="M650.92 203.37L650.72 201.83L649.12 202.26L650.92 203.37L650.92 203.37Z" />
	<path id="Layer" class="shp2" d="M634.93 195L638.1 196.83C638.1 196.61 638.62 196.68 639.18 196.83C637.14 195.91 635 194.66 634.93 195Z" />
	<path id="Layer" class="shp2" d="M639.17 196.87C639.39 196.99 639.61 197.09 639.83 197.19C640.06 197.29 640.28 197.38 640.51 197.47C640.75 197.55 640.98 197.63 641.22 197.69C641.45 197.76 641.69 197.82 641.93 197.87C641.71 197.77 641.48 197.68 641.25 197.59C641.03 197.5 640.8 197.41 640.57 197.32C640.34 197.24 640.1 197.16 639.87 197.09C639.64 197.01 639.41 196.94 639.17 196.87Z" />
	<path id="Layer" class="shp2" d="M646.22 201.66L645.36 200.97L643.06 199.81L646.22 201.66L646.22 201.66Z" />
	<path id="Layer" class="shp2" d="M599.26 178.87L595.47 177.62C594.92 177.87 595.8 178.56 597.23 178.99C598.22 179.08 599.64 179.51 599.26 178.87Z" />
	<path id="Layer" class="shp2" d="M608.8 187C608.66 186.9 608.54 186.78 608.42 186.66C608.3 186.54 608.19 186.41 608.09 186.27C607.98 186.13 607.89 185.99 607.81 185.84C607.73 185.69 607.66 185.53 607.6 185.37L606.83 186.81L608.8 187Z" />
	<path id="Layer" class="shp2" d="M598 182.69C597.45 182.95 592.2 181.56 596.85 183.49C597.45 183.24 601.24 184.49 598 182.69Z" />
	<path id="Layer" class="shp2" d="M543.86 157.17L544.8 157.54L545.7 155.02L543.86 157.17L543.86 157.17Z" />
	<path id="Layer" class="shp2" d="M492.62 143.23C496.75 145.55 494.26 142.1 497.91 144.42C499.17 144.24 494.91 142.53 496.18 142.42C493.31 142 492.05 141.13 492.62 143.23Z" />
	<path id="Layer" class="shp2" d="M496.19 142.44C496.65 142.51 497.19 142.57 497.68 142.6C497.56 142.57 497.43 142.55 497.31 142.53C497.19 142.51 497.06 142.49 496.94 142.48C496.82 142.46 496.69 142.45 496.57 142.45C496.44 142.44 496.32 142.44 496.19 142.44Z" />
	<path id="Layer" class="shp2" d="M3.94 175.11L1.59 177.11L3.53 176.15L3.94 175.11L3.94 175.11Z" />
	<path id="Layer" class="shp2" d="M1.82 180.86L0 180.35L0.05 182.73C0.46 182.15 1.19 181 1.82 180.86Z" />
	<path id="Layer" class="shp2" d="M319 80.08L319.36 79.78C319.08 79.2 318.43 78.91 317.13 78.33L319 80.08Z" />
	<path id="Layer" class="shp2" d="M281.14 63.76L281.79 64.06L281.14 62.13L281.14 63.76L281.14 63.76Z" />
	<path id="Layer" class="shp2" d="M248.39 52.27C249.67 52.89 251.33 53.27 252.61 53.85C249.67 52.89 248.8 50.36 248.39 52.27Z" />
</svg>