<svg version="1.2" baseProfile="tiny-ps" xmlns="http://www.w3.org/2000/svg" viewBox="0 0 1257 431" width="1257" height="431">
	<title>tengalow logo svg file-02 -svg</title>
	<style>
		tspan { white-space:pre }
		.shp0 { fill: #ffffff } 
		.shp1 { fill: #69a4cc } 
		.shp2 { fill: #acc4cd } 
		.shp3 { fill: #000000 } 
	</style>
	<path id="Shape 1" class="shp0" d="M0 431L233 197L369 29L391 -1L431 19L637 107L757 147L847 181L931 214L1009 245L1119 283L1257 341L1257 431" />
	<path id="Layer" class="shp1" d="M530.26 293.87C536.83 299.3 540.11 308.3 540.11 320.87L540.11 388.4L513.24 388.4L513.24 327.4C513.24 322.13 512.54 318.08 511.14 315.25C508.58 310.1 503.71 307.52 496.53 307.52C487.7 307.52 481.64 311.29 478.35 318.84C476.64 322.84 475.79 327.93 475.79 334.11L475.79 388.39L449.57 388.39L449.57 288.31L475 288.31L475 302.94C478.33 297.79 481.51 294.07 484.53 291.8C489.9 287.75 496.71 285.73 504.96 285.73C515.26 285.73 523.69 288.44 530.26 293.87Z" />
	<path id="Layer" fill-rule="evenodd" class="shp2" d="M599.57 302.54L599.57 288.12L625.15 288.12L625.15 383.26C625.15 396.2 622.97 405.95 618.62 412.52C611.13 423.81 596.78 429.45 575.56 429.45C562.74 429.45 552.28 426.93 544.18 421.9C536.08 416.87 531.6 409.35 530.75 399.36L559.27 399.36C560 402.43 561.2 404.64 562.86 405.99C565.68 408.38 570.43 409.58 577.12 409.58C586.57 409.58 592.9 406.42 596.12 400.1C598.2 396.05 599.24 389.24 599.25 379.67L599.25 373.23C598.74 374.16 598.19 375.06 597.6 375.93C597 376.81 596.36 377.65 595.68 378.46C595 379.27 594.28 380.05 593.53 380.79C592.77 381.53 591.98 382.23 591.15 382.89C585.94 386.89 579.16 388.89 570.82 388.89C557.94 388.89 547.65 384.37 539.95 375.32C532.25 366.27 528.4 354.02 528.4 338.56C528.4 323.66 532.11 311.13 539.52 300.98C546.93 290.83 557.43 285.74 571 285.73C572.12 285.7 573.24 285.73 574.35 285.81C575.46 285.9 576.57 286.03 577.68 286.22C578.78 286.41 579.87 286.66 580.95 286.95C582.02 287.25 583.09 287.6 584.13 288C590.5 290.67 595.64 295.51 599.57 302.54ZM593.06 359.9C597.27 355.27 599.38 347.89 599.38 337.77C599.38 328.26 597.38 321.03 593.38 316.06C589.38 311.09 584.02 308.61 577.3 308.6C568.14 308.6 561.81 312.93 558.3 321.6C556.47 326.2 555.55 331.87 555.55 338.6C555.53 339.93 555.57 341.26 555.68 342.58C555.79 343.9 555.97 345.22 556.22 346.53C556.46 347.83 556.78 349.12 557.15 350.4C557.53 351.67 557.97 352.92 558.48 354.15C562.02 362.62 568.37 366.85 577.54 366.85C579 366.87 580.46 366.74 581.9 366.44C583.33 366.15 584.73 365.7 586.06 365.11C587.4 364.51 588.66 363.77 589.84 362.9C591.01 362.03 592.09 361.03 593.05 359.93L593.06 359.9Z" />
	<path id="Layer" class="shp1" d="M407.21 252.8L407.21 276.8L366.63 276.8L366.63 388.41L338.11 388.41L338.11 276.81L297.35 276.81L297.35 252.81L407.21 252.8Z" />
	<path id="Layer" fill-rule="evenodd" class="shp2" d="M438.72 292.9C440.35 293.93 441.9 295.08 443.37 296.34C444.84 297.59 446.22 298.95 447.49 300.4C448.77 301.85 449.94 303.38 451 305C452.05 306.55 453.01 308.15 453.87 309.81C454.74 311.46 455.51 313.16 456.18 314.91C456.86 316.65 457.43 318.43 457.9 320.24C458.37 322.05 458.74 323.88 459 325.73C459.2 327.38 459.37 329.03 459.51 330.69C459.64 332.34 459.75 334 459.82 335.66C459.89 337.32 459.93 338.98 459.94 340.65C459.95 342.31 459.93 343.97 459.87 345.63L386.87 345.63C387.28 355.69 390.77 362.74 397.36 366.79C398.44 367.44 399.57 368.01 400.74 368.5C401.9 368.99 403.1 369.4 404.32 369.71C405.54 370.03 406.78 370.27 408.04 370.41C409.29 370.55 410.56 370.61 411.82 370.57C417.82 370.57 422.67 369.04 426.38 365.97C426.94 365.49 427.47 364.99 427.98 364.46C428.49 363.92 428.97 363.37 429.42 362.79C429.88 362.21 430.3 361.61 430.69 360.99C431.09 360.37 431.45 359.73 431.78 359.07L458.55 359.07C457.84 365.02 454.6 371.06 448.83 377.19C439.77 386.94 427.16 391.82 411 391.82C407.82 391.86 404.63 391.63 401.49 391.12C398.35 390.6 395.25 389.82 392.25 388.77C389.24 387.72 386.33 386.41 383.55 384.85C380.77 383.29 378.14 381.5 375.67 379.48C365.47 371.25 360.37 357.87 360.37 339.33C360.37 321.96 364.97 308.62 374.18 299.33C383.39 290.04 395.33 285.41 410 285.46C412.02 285.43 414.04 285.5 416.06 285.68C418.07 285.87 420.08 286.15 422.06 286.55C424.04 286.94 426.01 287.44 427.94 288.05C429.87 288.65 431.76 289.36 433.62 290.16C435.38 290.95 437.08 291.87 438.72 292.9ZM387.39 328.33L432.57 328.33C432.09 321.37 429.76 316.09 425.57 312.48C424.5 311.57 423.34 310.77 422.12 310.07C420.9 309.38 419.61 308.8 418.29 308.34C416.96 307.88 415.59 307.54 414.2 307.33C412.81 307.12 411.4 307.03 410 307.08C403.3 307.08 398.1 308.99 394.39 312.81C390.68 316.63 388.35 321.8 387.39 328.33Z" />
	<path id="Layer" fill-rule="evenodd" class="shp1" d="M655.23 327.41C660.11 326.8 663.6 326.03 665.7 325.11C669.47 323.52 671.36 321.03 671.36 317.66C671.36 313.55 669.91 310.71 667.02 309.15C664.13 307.59 659.88 306.81 654.29 306.8C648.01 306.8 643.56 308.33 640.95 311.4C640.44 312.07 639.98 312.77 639.57 313.49C639.15 314.22 638.79 314.98 638.47 315.75C638.16 316.53 637.9 317.32 637.69 318.13C637.48 318.95 637.32 319.77 637.22 320.6L611.92 320.6C612.47 311.83 614.94 304.62 619.31 298.98C626.27 290.15 638.22 285.73 655.16 285.73C666.19 285.73 675.98 287.91 684.55 292.26C693.12 296.61 697.4 304.83 697.39 316.92L697.39 362.92C697.39 366.11 697.45 369.98 697.58 374.52C697.77 377.95 698.29 380.29 699.15 381.52C699.4 381.85 699.67 382.16 699.96 382.46C700.25 382.75 700.55 383.02 700.88 383.28C701.21 383.53 701.55 383.76 701.9 383.97C702.26 384.18 702.63 384.36 703.01 384.52L703.01 388.39L674.48 388.39C674.29 387.93 674.12 387.47 673.96 387C673.79 386.53 673.64 386.05 673.5 385.58C673.37 385.1 673.24 384.62 673.12 384.14C673.01 383.65 672.91 383.17 672.82 382.68C672.51 380.91 672.27 378.88 672.08 376.61C671.16 377.59 670.21 378.54 669.22 379.46C668.23 380.37 667.21 381.24 666.16 382.08C665.1 382.92 664.02 383.71 662.91 384.47C661.8 385.22 660.66 385.94 659.49 386.61C658.03 387.43 656.52 388.16 654.96 388.78C653.41 389.4 651.81 389.92 650.19 390.33C648.57 390.74 646.92 391.05 645.25 391.24C643.59 391.43 641.91 391.52 640.24 391.49C631.11 391.49 623.56 388.9 617.61 383.71C611.66 378.52 608.68 371.19 608.68 361.71C608.68 349.38 613.47 340.46 623.05 334.94C628.3 331.93 636.03 329.79 646.22 328.5L655.23 327.41ZM671.23 339.65C670.83 339.9 670.42 340.14 670.01 340.38C669.59 340.61 669.17 340.83 668.75 341.04C668.32 341.25 667.89 341.45 667.46 341.64C667.02 341.83 666.58 342.01 666.14 342.18C665.57 342.38 665 342.57 664.42 342.74C663.84 342.92 663.26 343.08 662.68 343.23C662.09 343.38 661.51 343.52 660.92 343.64C660.33 343.77 659.73 343.88 659.14 343.98L653.14 345.09C647.55 346.07 643.53 347.27 641.09 348.68C636.96 351.07 634.89 354.79 634.89 359.82C634.89 364.29 636.15 367.53 638.68 369.53C639.33 370.03 640.02 370.48 640.75 370.87C641.48 371.25 642.24 371.57 643.02 371.83C643.8 372.08 644.61 372.27 645.42 372.39C646.23 372.51 647.06 372.55 647.88 372.53C649.29 372.53 650.69 372.43 652.08 372.22C653.47 372 654.85 371.68 656.19 371.26C657.53 370.84 658.84 370.31 660.1 369.69C661.36 369.06 662.57 368.34 663.72 367.53C668.55 364.2 671.05 358.16 671.24 349.41L671.23 339.65Z" />
	<path id="Layer" class="shp2" d="M835.24 288.12L861.83 288.12L877.1 360.35L892.74 288.12L920.07 288.12L891 388.41L864 388.41L848.3 315.36L832.38 388.41L805.15 388.41L777 288.12L805.16 288.12L820.8 360.12L835.24 288.12Z" />
	<path id="Layer" class="shp2" d="M716.12 388.41L689.9 388.41L689.9 252.8L716.12 252.8L716.12 388.41Z" />
	<path id="Layer" fill-rule="evenodd" class="shp1" d="M792.81 376.15C784.34 386.6 771.49 391.82 754.26 391.82C737.03 391.82 724.17 386.6 715.7 376.15C707.23 365.7 703 353.12 703 338.41C703 323.95 707.23 311.42 715.7 300.81C724.17 290.2 737.02 284.9 754.25 284.9C771.48 284.9 784.33 290.2 792.8 300.81C801.27 311.42 805.5 323.95 805.5 338.41C805.5 353.12 801.27 365.7 792.81 376.15ZM771.81 361.65C775.92 356.2 777.97 348.45 777.98 338.41C777.99 328.37 775.93 320.64 771.81 315.21C767.7 309.79 761.81 307.08 754.15 307.08C746.49 307.08 740.59 309.79 736.44 315.21C732.3 320.63 730.23 328.36 730.23 338.41C730.23 348.46 732.3 356.2 736.44 361.65C740.58 367.1 746.48 369.83 754.15 369.83C761.82 369.83 767.71 367.1 771.83 361.65L771.81 361.65Z" />
	<path id="Layer" class="shp3" d="M1259.93 345.44L1260.69 345.11L1255.95 344.55L1259.93 345.44L1259.93 345.44Z" />
	<path id="Layer" class="shp3" d="M1234 333.15C1235.36 336.64 1243.6 337.21 1247.83 340.23L1248.34 341.12L1251.34 340.22C1245.51 337.87 1237.62 335.67 1234 333.15Z" />
	<path id="Layer" class="shp3" d="M1222.47 321.57C1222.9 322.88 1219.1 320.94 1225.57 323.38C1225.53 323.34 1225.49 323.3 1225.44 323.26C1225.4 323.22 1225.36 323.17 1225.32 323.13C1225.28 323.09 1225.24 323.05 1225.2 323C1225.17 322.96 1225.13 322.91 1225.09 322.87C1224.53 322.62 1223.76 322.25 1222.47 321.57Z" />
	<path id="Layer" class="shp3" d="M1225.1 322.87C1227.87 324.09 1223.67 321.26 1225.1 322.87Z" />
	<path id="Layer" class="shp3" d="M1212.2 317.44L1216.2 318.32C1215.7 317.43 1212.54 315.8 1213.92 315.97C1210 314.68 1210.51 315.57 1212.2 317.44Z" />
	<path id="Layer" class="shp3" d="M1208 317.55L1210 318.08C1209.78 317.7 1209.33 317.39 1208 317.55Z" />
	<path id="Layer" class="shp3" d="M1214.31 319.21L1210 318.08C1210.35 318.7 1210 319.49 1211.94 318.67C1211.3 319.21 1212.4 318.91 1214.31 319.21Z" />
	<path id="Layer" class="shp3" d="M1216.39 320.62C1218.18 322.08 1220.64 323.62 1216.64 322.74C1223.69 325.67 1223.45 323.54 1216.39 320.62Z" />
	<path id="Layer" class="shp3" d="M1231.49 334.95L1233.87 336.95L1236.58 337.27C1235.23 337.06 1231.67 334.13 1231.49 334.95Z" />
	<path id="Layer" class="shp3" d="M1190.27 305.69C1189.81 306.08 1190.87 307.59 1190.84 308.35L1193.78 309.02C1192.56 308 1190.1 306.51 1190.27 305.69Z" />
	<path id="Layer" class="shp3" d="M1190.83 308.35L1186.44 307.35C1190 309.11 1190.8 309 1190.83 308.35Z" />
	<path id="Layer" class="shp3" d="M1206.11 319.84L1213.51 321.12L1204.84 319.27L1206.11 319.84L1206.11 319.84Z" />
	<path id="Layer" class="shp3" d="M1175.04 298.51L1177.84 298.41L1172.99 298.27L1175.04 298.51L1175.04 298.51Z" />
	<path id="Layer" class="shp3" d="M1164.81 294C1166.93 293.82 1163.26 291.32 1165.31 291.55C1164.67 291.32 1164.02 291.12 1163.36 290.93C1162.7 290.75 1162.04 290.59 1161.37 290.46C1160.7 290.32 1160.02 290.21 1159.35 290.12C1158.67 290.03 1157.99 289.97 1157.31 289.93C1158 290.13 1158.68 290.36 1159.34 290.63C1160.01 290.9 1160.66 291.21 1161.29 291.55C1161.92 291.89 1162.53 292.27 1163.12 292.68C1163.7 293.09 1164.27 293.53 1164.81 294Z" />
	<path id="Layer" class="shp3" d="M1153.23 289.37C1153.56 289.44 1153.9 289.5 1154.24 289.56C1154.57 289.62 1154.91 289.67 1155.25 289.72C1155.58 289.77 1155.92 289.81 1156.26 289.85C1156.6 289.88 1156.94 289.91 1157.28 289.94C1156.95 289.85 1156.62 289.77 1156.28 289.7C1155.95 289.64 1155.61 289.58 1155.27 289.53C1154.93 289.48 1154.59 289.45 1154.25 289.42C1153.91 289.39 1153.57 289.38 1153.23 289.37L1153.23 289.37Z" />
	<path id="Layer" class="shp3" d="M1179.75 303.92C1179.58 303.47 1179.35 302.41 1177.27 301.03L1178.19 303.17L1179.75 303.92Z" />
	<path id="Layer" class="shp3" d="M1178.22 303.24L1178.22 303.17L1174.86 301.51L1178.22 303.24Z" />
	<path id="Layer" class="shp3" d="M1180.14 304.11L1179.75 303.92C1179.84 304.13 1179.91 304.22 1180.14 304.11Z" />
	<path id="Layer" class="shp3" d="M1196.25 313.67C1193.54 313.35 1188.25 311.91 1192.43 315.32C1194.56 315.14 1192.17 313.19 1196.25 313.67Z" />
	<path id="Layer" class="shp3" d="M1181.28 306.78L1185.37 309.08C1185.46 308.67 1184.95 307.77 1186.29 307.93L1181.28 306.78Z" />
	<path id="Layer" class="shp3" d="M1178.99 306.25L1181.28 306.78L1179.76 305.92L1178.99 306.25L1178.99 306.25Z" />
	<path id="Layer" class="shp3" d="M1159.9 294.05C1159.34 293.95 1158.79 293.84 1158.24 293.7C1157.68 293.56 1157.14 293.41 1156.6 293.24C1156.06 293.06 1155.52 292.87 1155 292.66C1154.47 292.45 1153.95 292.23 1153.44 291.98C1154.02 292.33 1154.6 292.67 1155.18 293.01C1155.77 293.35 1156.36 293.67 1156.95 293.99C1157.55 294.31 1158.14 294.62 1158.75 294.92C1159.35 295.22 1159.96 295.52 1160.57 295.8C1161.11 295.52 1162.53 295.21 1159.9 294.05Z" />
	<path id="Layer" class="shp3" d="M1168.75 298.63L1168.3 298.52C1168.5 298.76 1168.69 298.89 1168.75 298.63Z" />
	<path id="Layer" class="shp3" d="M1131.1 281.67L1131.34 282.09L1131.53 281.89L1131.1 281.67L1131.1 281.67Z" />
	<path id="Layer" class="shp3" d="M1160.86 296.25C1161.17 296.46 1161.49 296.65 1161.82 296.82C1162.15 296.98 1162.5 297.12 1162.85 297.23C1163.21 297.35 1163.57 297.43 1163.94 297.49C1164.31 297.55 1164.68 297.58 1165.05 297.58C1163.62 297.09 1162.13 296.51 1160.57 295.8C1160.33 295.93 1160.24 296 1160.86 296.25Z" />
	<path id="Layer" class="shp3" d="M1146.7 287.14C1147.52 287.87 1148.48 288.62 1149.51 289.38C1148.78 288.5 1147.2 286.93 1146.7 287.14Z" />
	<path id="Layer" class="shp3" d="M1167.87 297.85L1168.17 297.91C1167.72 297.33 1167.72 297.51 1167.87 297.85Z" />
	<path id="Layer" class="shp3" d="M1167.87 297.85C1167.64 297.8 1167.4 297.77 1167.17 297.73C1166.94 297.7 1166.7 297.67 1166.47 297.65C1166.23 297.62 1166 297.61 1165.76 297.6C1165.52 297.59 1165.29 297.58 1165.05 297.58C1165.32 297.68 1165.58 297.77 1165.85 297.85C1166.12 297.94 1166.39 298.02 1166.66 298.1C1166.93 298.18 1167.2 298.25 1167.48 298.32C1167.75 298.39 1168.02 298.46 1168.3 298.52C1168.26 298.47 1168.22 298.42 1168.18 298.36C1168.14 298.31 1168.1 298.26 1168.06 298.2C1168.03 298.14 1167.99 298.09 1167.96 298.03C1167.93 297.97 1167.9 297.91 1167.87 297.85L1167.87 297.85Z" />
	<path id="Layer" class="shp3" d="M1120.18 287.59C1121.1 286.43 1126.46 287.44 1129.96 290.74C1134.49 291.64 1133.8 286.13 1131.33 282.09C1130.94 282.6 1130.7 283.09 1126.14 281.96C1127.29 283.35 1134.7 287.96 1130.61 287.46C1124.73 285.57 1126.26 284.9 1123.87 282.97C1125.42 285.65 1115.7 282.08 1115.87 285.03L1121.13 286.43C1121 286.85 1119 286.63 1120.18 287.59Z" />
	<path id="Layer" class="shp3" d="M1139.29 285.91L1141.09 286.54C1140.61 286.23 1140.14 285.9 1139.68 285.55C1139.22 285.2 1138.78 284.84 1138.35 284.46C1137.91 284.08 1137.49 283.69 1137.09 283.28C1136.69 282.88 1136.29 282.45 1135.92 282.02C1132.75 281.33 1131.92 281.54 1131.53 281.88L1140 286L1139.29 285.91Z" />
	<path id="Layer" class="shp3" d="M1148.86 290.12C1146.86 290.91 1142.43 289.59 1144.26 292.3C1149.37 294.55 1148.36 292.76 1151.67 293.55C1143.33 290.11 1154.38 293.85 1148.85 290.31C1149.24 290.43 1149.63 290.55 1150.01 290.68C1150.4 290.81 1150.78 290.94 1151.17 291.08C1151.55 291.22 1151.93 291.37 1152.31 291.52C1152.69 291.67 1153.07 291.82 1153.44 291.98C1152.05 291.13 1150.72 290.25 1149.51 289.37L1149.66 289.55L1149.66 289.55L1149.66 289.55C1149.93 289.89 1150 290.05 1149.66 289.76C1149.64 289.76 1149.63 289.76 1149.61 289.75C1149.6 289.75 1149.58 289.74 1149.57 289.74C1149.55 289.74 1149.54 289.73 1149.52 289.73C1149.51 289.72 1149.49 289.72 1149.48 289.71C1149.44 289.75 1149.39 289.79 1149.34 289.83C1149.29 289.86 1149.24 289.9 1149.19 289.93C1149.14 289.96 1149.09 289.99 1149.03 290.01C1148.97 290.03 1148.92 290.05 1148.86 290.07C1146.63 288.68 1148.66 289.53 1149.48 289.71C1149.54 289.65 1149.63 289.62 1149.68 289.55L1149.68 289.55L1141.12 286.55C1141.74 286.89 1142.37 287.22 1143.01 287.54C1143.64 287.86 1144.28 288.17 1144.93 288.47C1145.57 288.77 1146.22 289.05 1146.88 289.33C1147.54 289.6 1148.2 289.87 1148.86 290.12L1148.86 290.12Z" />
	<path id="Layer" class="shp3" d="M1186.64 316.32C1186.44 316.08 1186.5 315.98 1186.53 315.87C1185.92 315.79 1185.67 315.82 1186.64 316.32Z" />
	<path id="Layer" class="shp3" d="M1183.68 313.9C1183.97 313.88 1184.26 313.87 1184.54 313.9C1184.83 313.92 1185.12 313.96 1185.4 314.03C1185.68 314.1 1185.95 314.18 1186.22 314.3C1186.49 314.41 1186.74 314.54 1186.99 314.69C1188.47 315.9 1186.67 315.36 1186.54 315.87C1187.88 316.04 1191.09 316.76 1187.76 314.37L1187.09 314.29C1184.02 312.29 1180.61 308.53 1181.28 308.6C1181.37 309.08 1181.49 309.56 1181.64 310.02C1181.79 310.49 1181.96 310.95 1182.17 311.39C1182.37 311.84 1182.6 312.27 1182.85 312.69C1183.1 313.11 1183.38 313.51 1183.68 313.9Z" />
	<path id="Layer" class="shp3" d="M1165.88 302.24L1158.74 299.77L1161.65 302.6L1161.82 301.78C1165.55 303.88 1165.14 302.58 1165.88 302.24Z" />
	<path id="Layer" class="shp3" d="M1130.64 280.61L1132.23 279.52L1127.31 279.82L1130.64 280.61L1130.64 280.61Z" />
	<path id="Layer" class="shp3" d="M1121.67 276.7L1122.6 275.55L1119.89 275.26L1121.67 276.7L1121.67 276.7Z" />
	<path id="Layer" class="shp3" d="M603.4 87.7L601.19 87.24C601.37 87.29 601.55 87.34 601.73 87.39C601.92 87.43 602.1 87.48 602.29 87.52C602.47 87.55 602.66 87.59 602.84 87.62C603.03 87.65 603.21 87.68 603.4 87.7Z" />
	<path id="Layer" class="shp3" d="M618.25 93.73L618.88 93.22C618 93.31 617.65 93.46 618.25 93.73Z" />
	<path id="Layer" class="shp3" d="M900.9 181.82C898.4 179.37 895.8 176.14 895.57 177.82L895.92 179.64C896.36 179.74 896.8 179.87 897.24 180.01C897.67 180.15 898.09 180.32 898.51 180.5C898.93 180.68 899.34 180.88 899.74 181.1C900.14 181.32 900.52 181.56 900.9 181.82L900.9 181.82Z" />
	<path id="Layer" class="shp3" d="M743.79 132.51L744.51 133.28L747.07 132.62L743.79 132.51Z" />
	<path id="Layer" class="shp3" d="M739.4 137.82L735.77 135.39C736.05 135.62 736.34 135.84 736.64 136.06C736.93 136.28 737.23 136.48 737.53 136.69C737.83 136.89 738.14 137.09 738.45 137.28C738.76 137.46 739.08 137.65 739.4 137.82Z" />
	<path id="Layer" class="shp3" d="M522.06 55.15L519.06 55.58C522.75 57.19 521.46 55.74 522.06 55.15Z" />
	<path id="Layer" class="shp3" d="M1030 236.26C1029.53 235.91 1029.05 235.57 1028.56 235.24C1028.08 234.92 1027.58 234.6 1027.08 234.29C1026.58 233.99 1026.07 233.69 1025.56 233.41C1025.05 233.13 1024.53 232.86 1024 232.6C1026.76 234.78 1028.69 237.1 1030 236.26Z" />
	<path id="Layer" class="shp3" d="M615.44 74.58C614.08 74.35 613.44 74.43 613.33 74.77C614.73 75 615.57 75 615.44 74.58Z" />
	<path id="Layer" class="shp3" d="M1016.68 229.41C1017.07 229.75 1017.48 230.01 1017.88 230.33C1018.41 230.47 1018.94 230.62 1019.46 230.79C1019.98 230.96 1020.5 231.13 1021.02 231.32C1021.53 231.51 1022.04 231.71 1022.55 231.93C1023.05 232.14 1023.55 232.36 1024.05 232.6C1023.55 232.14 1023 231.72 1022.43 231.36C1021.86 230.99 1021.26 230.66 1020.63 230.39C1020 230.12 1019.36 229.9 1018.7 229.74C1018.03 229.57 1017.36 229.46 1016.68 229.41L1016.68 229.41Z" />
	<path id="Layer" class="shp3" d="M297 169.19C296.8 169.32 296.6 169.52 296.4 169.63C296.53 169.81 296.74 169.57 297 169.19Z" />
	<path id="Layer" class="shp3" d="M56.62 400.65C57.12 399.88 58.05 398.73 58.92 397.65C58.7 397.88 58.49 398.11 58.28 398.35C58.07 398.59 57.87 398.83 57.68 399.08C57.49 399.33 57.3 399.59 57.13 399.85C56.95 400.11 56.78 400.38 56.62 400.65Z" />
	<path id="Layer" class="shp3" d="M1086.13 259.81C1088.06 260.57 1086.5 259.81 1086.13 259.81Z" />
	<path id="Layer" class="shp3" d="M1092.76 269.61C1092.29 269.61 1091.89 269.61 1091.69 269.97C1091.76 269.91 1091.84 269.85 1091.92 269.8C1092.01 269.75 1092.1 269.71 1092.19 269.68C1092.28 269.65 1092.37 269.63 1092.47 269.62C1092.57 269.61 1092.66 269.6 1092.76 269.61L1092.76 269.61Z" />
	<path id="Layer" class="shp3" d="M993.85 230.2L993.69 230.12C994.13 230.66 994.06 230.56 993.85 230.2Z" />
	<path id="Layer" class="shp3" d="M1088.68 261.74C1088.5 261.6 1088.32 261.47 1088.14 261.34C1087.96 261.2 1087.77 261.08 1087.59 260.95C1087.4 260.82 1087.21 260.7 1087.03 260.58C1086.84 260.46 1086.64 260.34 1086.45 260.23C1086.63 260.37 1086.81 260.5 1086.99 260.63C1087.17 260.76 1087.36 260.89 1087.54 261.02C1087.73 261.14 1087.92 261.27 1088.11 261.39C1088.3 261.51 1088.49 261.63 1088.68 261.74Z" />
	<path id="Layer" class="shp3" d="M1088.6 260.89L1090.19 261.77C1090.54 261.65 1090.39 261.4 1088.6 260.89Z" />
	<path id="Layer" class="shp3" d="M1083.46 258.7C1083.72 258.81 1083.97 258.93 1084.23 259.05C1084.48 259.17 1084.73 259.29 1084.98 259.42C1085.23 259.54 1085.48 259.68 1085.73 259.81C1085.97 259.95 1086.22 260.09 1086.46 260.23C1086.13 259.97 1086.01 259.82 1086.13 259.81L1083.46 258.7Z" />
	<path id="Layer" class="shp3" d="M400.77 34.93L400.37 35.18C399.56 37.22 400.06 36.44 400.77 34.93Z" />
	<path id="Layer" class="shp3" d="M844.72 177.54C844.82 177.54 844.88 177.54 844.97 177.54L844.7 177.38L844.72 177.54Z" />
	<path id="Layer" class="shp3" d="M837.36 176C837.98 175.84 838.62 175.75 839.27 175.73C839.91 175.7 840.55 175.75 841.19 175.87C841.82 175.99 842.44 176.18 843.03 176.44C843.62 176.69 844.18 177.01 844.7 177.39L844.01 172.28L837.36 176Z" />
	<path id="Layer" fill-rule="evenodd" class="shp3" d="M545.06 79.55C539.22 74.76 531.87 74.67 527.74 74.34C525.49 72.6 531.26 71.66 523.68 69.34C513.05 65.88 524.13 73.65 517.74 71.57L514.35 67.2C505.68 65.65 500.59 61.39 494.16 58.2C493.93 58.11 493.7 58.04 493.46 57.98C493.22 57.91 492.98 57.87 492.74 57.83C492.5 57.8 492.25 57.78 492.01 57.77C491.76 57.76 491.51 57.77 491.27 57.79C484.72 53.67 475.62 53.79 470.72 50.79C472.17 50.81 468.38 47.95 468 47.1L458 44.65C462.46 45.7 462.87 44.22 464.21 43.16C461.18 42.05 459.46 42.29 457.36 41.64C458.8 41.65 460.26 41.64 458.95 40.36L447.95 38.72C448.14 38.87 448.34 39.01 448.55 39.15C448.75 39.28 448.96 39.41 449.17 39.53C449.39 39.65 449.6 39.77 449.82 39.88C450.04 39.99 450.26 40.09 450.49 40.18C447.98 39.19 442.24 38.01 439.09 35.51C439.61 35.08 441.04 35.02 441.56 34.58C443.98 37.3 446.18 36.59 448.18 36.15C441.15 33.72 446.64 35.12 443.64 32.82C438.7 31.01 435.99 32.2 436.83 33.89C431.5 31.36 429.85 30.3 423.68 29.89L425.42 28.27L419.98 27.16L424.98 26.16C415.31 21.5 422.03 28.92 411.18 24.33L411.67 22.56C407.1 22.04 404.83 24.56 402.02 21.56C397.58 21.56 408.58 25.91 398.58 23.75C397.09 22.31 393.49 20.75 390.71 19.75C387.5 19.86 392.21 22.22 394.43 22.59C393.85 22.51 393.27 22.41 392.69 22.28C392.02 22.14 391.35 21.97 390.7 21.77C390.04 21.57 389.4 21.35 388.76 21.1C388.12 20.85 387.49 20.57 386.88 20.27C386 19.55 385.92 18.8 385.31 17.98C385.18 17.76 385.04 17.55 384.88 17.35C384.72 17.15 384.55 16.96 384.37 16.79C384.18 16.61 383.99 16.45 383.78 16.3C383.58 16.15 383.36 16.01 383.14 15.89C383.08 15.85 383.01 15.82 382.95 15.79C382.89 15.76 382.82 15.73 382.75 15.71C382.69 15.68 382.62 15.66 382.55 15.64C382.48 15.62 382.41 15.6 382.34 15.59C382.28 15.64 382.23 15.7 382.18 15.75C382.13 15.81 382.07 15.87 382.02 15.93C381.97 15.98 381.93 16.04 381.88 16.1C381.83 16.17 381.78 16.23 381.74 16.29C381.61 16.47 381.49 16.66 381.37 16.84C381.26 17.03 381.15 17.22 381.04 17.42C380.94 17.61 380.84 17.81 380.74 18.01C380.65 18.21 380.56 18.41 380.48 18.62C381.72 18.15 381.86 19.38 382.28 20C382.48 20.33 382.71 20.53 383.01 20.53C383.06 20.53 383.1 20.52 383.15 20.51C383.19 20.5 383.23 20.48 383.28 20.46C383.32 20.44 383.36 20.42 383.4 20.4C383.44 20.38 383.47 20.35 383.51 20.32C383.72 20.25 383.84 19.76 384.3 19.98C383.94 20.04 383.78 20.49 383.46 20.62C383.14 20.75 382.68 20.83 382.19 21C382.12 21.02 382.04 21.04 381.97 21.07C381.9 21.1 381.83 21.13 381.77 21.16C381.7 21.19 381.63 21.23 381.57 21.27C381.5 21.31 381.44 21.35 381.38 21.4C381.25 21.52 381.12 21.63 381 21.75C380.87 21.87 380.75 22 380.63 22.12C380.51 22.24 380.39 22.37 380.27 22.5C380.15 22.62 380.03 22.75 379.92 22.88C379.68 23.15 379.45 23.42 379.24 23.71C379.03 24 378.83 24.29 378.64 24.6C378.46 24.91 378.29 25.22 378.13 25.54C377.97 25.86 377.83 26.19 377.71 26.53L378.25 22.15C377.98 22.53 377.71 22.93 377.47 23.33C377.22 23.73 376.99 24.14 376.77 24.56C376.55 24.98 376.34 25.4 376.15 25.83C375.96 26.27 375.79 26.71 375.63 27.15L374.53 25.64C372.52 33.14 365.07 34.88 365.63 40.78C364.95 36.44 362.46 44.99 359.7 46.36C361.59 40.39 370.27 33.47 368.42 30.95C366 32.47 365.62 35.29 363.28 36.75C364.12 35.05 365.12 32.48 365.12 31.55C358.16 37.4 357.67 43.59 354.86 48.3L360.36 40.43C362.17 42.94 358.04 44.1 358.17 47.68C353.89 50.37 353.34 54.76 350.11 57.16C350.72 56.4 350.62 56.16 351.11 55.52C344.64 63.46 339.08 62.63 336.41 65.77C333.53 68.68 329.94 75.71 332.69 74.35C331.23 77.47 340.74 63.03 340 70.13C332.75 71.88 333.58 80.7 323 88.82C325.35 83.4 318.93 89.81 321.19 85.1C317.56 90.13 317.94 90.73 317.19 93.68L314.92 94.23C312.27 102.5 315.89 97.48 309.48 108.04C311.22 104.16 304.8 110.56 306 107.5C305.48 108.08 304.99 108.68 304.52 109.3C304.06 109.92 303.62 110.56 303.21 111.21C302.8 111.87 302.41 112.55 302.06 113.24C301.71 113.93 301.38 114.63 301.09 115.35L301.22 114.87C293.97 124.95 293.44 121.62 287.54 131.37L288.91 131.04C281.36 143.95 268.43 157.51 259.6 170.04L263.19 166.63C261.55 168.45 257.75 175.36 254.05 178.01C254.19 177.75 254.34 177.5 254.49 177.25C254.64 177 254.8 176.75 254.96 176.51C255.12 176.26 255.28 176.02 255.45 175.78C255.62 175.55 255.8 175.31 255.98 175.08C255.15 174.58 252.89 175.13 250.38 177.83L250.62 179.83L248.8 180.27C245.25 184.64 251.46 180.31 247.91 184.64C242.6 184.55 232.26 203.01 226.35 204.45C226.29 209.29 233.38 196.45 232.87 201.45C232.42 201.72 231.98 202.01 231.55 202.31C231.12 202.61 230.7 202.93 230.3 203.27C229.89 203.6 229.5 203.95 229.12 204.32C228.74 204.68 228.38 205.06 228.03 205.45L230.23 205.61C218.74 218.11 43.6 392 34.34 403.97L34.42 403.26C30.48 406.96 28.91 409.42 28.61 412.26C27.24 412.6 29.35 409.32 27.45 410.48C25.08 420.74 12.87 423.03 11.75 429.54C9.38 426.66 -1.1 434.08 -0.1 428.3L-2.21 431.58C-3.28 429.07 5.43 422.09 4.87 418.78L14.56 410.86C13.61 410.59 13.83 408.19 12.35 409.52C14.23 407.14 15.79 405.01 12.28 407.27C35.51 388.46 219.7 191.56 240.41 171.27C241.48 169.62 240.11 169.95 239.2 170.18C244.36 167.53 241.46 165.48 243.04 163.02L250.54 159.11C251.76 156.04 249.41 157.3 249.03 156.7C257.79 144.87 269.33 135.82 275.33 125.34C278.66 123.13 276.86 127.75 280.33 124.13C273.66 127.08 287.03 113.08 284.13 113.48C289.87 111.54 295.67 100.29 298.18 105.08C302.18 100.62 299.62 99.91 298.18 100.91C302.71 95.66 306.27 91.33 308.61 85.91C311.9 83.73 327.41 60.83 334.37 58.17C330.02 59.74 333.75 56.99 335.45 53.2L331.45 54.64L337.45 47.69C338.46 46.12 338.86 45.77 339.01 45.9C340.08 44.77 339.76 46.99 342.68 44.29C346.71 39.55 345.97 38.55 347.25 35.17L346.4 35.7L348.9 32.29C350.9 29.92 343.63 42.21 350.9 35.06C350.52 34.56 352.04 28.09 354.98 26.98C351.62 30.93 353.22 31.4 354.92 30.33L359.62 24.8L355.95 24.89C359.26 20.89 362.69 16.89 366.2 12.89L373.01 5.06C374.33 3.62 375.6 2.01 376.92 0.62L382.85 1.95L388.71 3.27C389.79 3.5 390.5 3.69 391.12 3.86L393.12 4.4C395.81 5.13 398.52 5.78 401.2 6.59L417.4 11.26C416.42 13.43 432.57 16.21 429.47 19.04L428.77 18.44C423.46 17.04 429.39 21.59 433.7 22.69C429.67 20.05 442.79 22.1 432.24 17.81L441.12 19.16C448.17 14.35 462.94 28.02 475.93 31.23C475.82 31.2 475.7 31.19 475.58 31.18C475.45 31.18 475.32 31.19 475.18 31.21C475.05 31.23 474.92 31.27 474.8 31.32C474.68 31.38 474.56 31.44 474.45 31.52C486.24 34.1 498 43.73 500.93 43.81L501.13 45.96C511.5 47.32 512.66 47.62 523.18 53.41C522.91 53.63 521.43 53.58 523.01 54.69C526.21 54.54 529.42 54.39 536.78 57.97L536.24 58.39L548.15 63.07C545.82 68.45 569.74 68.22 570.93 75.45C573.93 74.81 582.77 77.85 586.93 78.65C586.86 78.89 587.01 79.23 587.55 79.74C593.25 78.63 600.35 85.88 605.55 87.56C609.13 88.19 608.06 86.69 606.99 85.19C612.62 90.07 626.06 89.65 628.06 91.56C632.77 93.64 629.04 94.33 629.89 96.05C637.23 98.28 630.59 90.67 639.34 96.51C638.14 96.35 636 95.73 636.68 96.35C640.16 98.2 644.33 106.96 648.46 107.1L646.46 105.2C653.67 106.38 660.61 115.65 663.08 112.38L663.08 110.43C673.77 116.99 668.18 111.61 679.18 117.99L678.93 118.22C684.16 119.8 686.13 122.97 689.66 121.15L688.04 120.15C694.46 122.26 694.94 122.72 701.35 125.26C702.17 125.28 705.48 126.03 706.17 126.94C707.31 124.77 721.56 131.46 724.39 132.66C719.15 131.09 721.21 132.97 722.32 134.44C726.03 133.69 728.18 134.27 731.86 137.16C733.51 134.54 735.47 131.81 743.77 134.69C742.34 134.65 740.23 134.13 740.85 135.04C741.47 135.95 743.62 136.04 744.35 136.04C744.95 136.93 742.13 136.41 742.69 137.74C749.26 137.08 752.38 141.13 760.81 143.13C757.94 143.04 759.93 144.41 760.49 145.74C762.31 142.74 770.49 152.63 768.97 147.33C783.85 155.68 809.02 162.45 814.16 167.45C815.38 169.24 820.48 169 823.25 170L822.34 171.27C830.99 171.62 828.7 172.59 838.7 173.43C834.32 173.69 835.59 175.05 838.85 177.81L846.17 177.26L846.54 179.9C849.38 180.03 852.07 181.43 854.74 182.86C858.14 181.45 867.68 185.37 869.78 184.68C871.43 188.7 877.49 186.83 878.43 190.38C878.75 190.37 879.06 190.37 879.38 190.38C879.69 190.39 880.01 190.4 880.32 190.43C880.64 190.45 880.95 190.48 881.26 190.52C881.58 190.56 881.89 190.61 882.2 190.66C881.38 188.83 881.45 187.22 883.7 188.83L884.31 189.01L884.72 191.14C885.32 191.28 885.92 191.42 886.51 191.57C887.11 191.73 887.7 191.89 888.29 192.07C888.88 192.24 889.47 192.43 890.06 192.62C890.64 192.81 891.22 193.02 891.8 193.23C891.6 193.09 891.4 192.95 891.2 192.8C891.01 192.65 890.82 192.5 890.63 192.35C890.44 192.19 890.26 192.03 890.08 191.86C889.9 191.69 889.72 191.52 889.55 191.35C890.54 192.04 891.42 192.76 892.29 193.42L893.19 193.8C893.14 193.8 893.09 193.79 893.04 193.78C892.99 193.77 892.94 193.76 892.89 193.75C892.85 193.74 892.8 193.73 892.75 193.71C892.7 193.7 892.66 193.68 892.61 193.66C893 193.96 893.4 194.23 893.83 194.47C894.25 194.71 894.69 194.93 895.14 195.11C895.59 195.29 896.06 195.44 896.53 195.56C897 195.68 897.49 195.77 897.97 195.82C905.8 201.94 919.14 200.14 927.43 207.73C926.12 206.77 924.11 205.76 923.31 206.14C931.53 209.32 938.64 215.03 944.31 215.9L944.6 214.17C945.95 214.52 947.3 214.89 948.63 215.28C949.97 215.67 951.3 216.09 952.62 216.53C953.95 216.97 955.26 217.44 956.57 217.93C957.87 218.41 959.17 218.93 960.46 219.46L961.46 217.79C968.17 221.34 984.33 224.87 987.05 230.34C989.37 229.63 996.5 234.87 1000.65 236.11L1001.07 237.9C1001.98 238.39 1002.91 238.85 1003.86 239.29C1004.8 239.72 1005.76 240.13 1006.73 240.5C1007.69 240.88 1008.67 241.22 1009.66 241.54C1010.65 241.85 1011.65 242.14 1012.66 242.39C1021.86 249.74 1032.74 251.2 1041.74 255.39L1041.65 255.82L1051.29 258.94C1048.33 259.09 1053.48 258.9 1056.1 260.47C1059.33 261.12 1063.93 263.58 1067 266L1072.74 268.78C1065.82 266.76 1072.33 270.93 1072 272.66L1076.3 273.09C1077.47 274.52 1073.34 273.23 1075.95 274.81C1078.83 275.11 1086.25 278.49 1089.25 277.92C1089.14 277.71 1089.01 277.5 1088.87 277.31C1088.73 277.11 1088.59 276.92 1088.43 276.74C1088.27 276.56 1088.1 276.39 1087.92 276.23C1087.74 276.07 1087.56 275.92 1087.36 275.78C1087 275.71 1087.03 275.71 1087.28 275.71L1087.06 275.51L1087.35 275.7C1087.46 275.7 1087.57 275.7 1087.68 275.69C1087.79 275.68 1087.9 275.67 1088 275.66C1088.11 275.65 1088.22 275.63 1088.33 275.61C1088.44 275.59 1088.54 275.57 1088.65 275.54C1093.16 277.99 1091.74 276.58 1091.89 275.8C1095.86 280.37 1099.38 280.35 1102.07 284.33C1099.96 280.32 1114.51 290.28 1112.6 285.89C1115.41 290.14 1115.24 287.23 1116.8 290.48C1111.57 287.29 1105.03 287.08 1100.09 286.08L1103.8 289.55C1099.68 291.04 1094.41 284.04 1091.41 283.8C1093.35 283.93 1096.71 286.12 1096.96 286.94L1096.76 284.41C1090.9 280.71 1085.16 280.15 1080.24 279.2C1084.11 281.79 1074.57 278.19 1076.94 281.07L1080.37 282.3C1081.55 283.73 1078.05 282.94 1075.91 282.73C1066.16 276.44 1046.33 269.29 1043.33 265.93C1045.23 267.44 1049.38 268.72 1051.53 268.93L1047 265.86C1051.03 267.57 1053.34 270.87 1059.55 272.78C1059.16 270.99 1064.27 271.04 1060.62 267.18C1050.26 260.03 1049.78 266.55 1036.39 260.03C1034.95 259.89 1040.22 259.06 1032.64 256.61C1022.94 253.96 1014.91 254.07 1013.64 257.07C1017.85 257.89 1026.29 259.54 1026.53 262.19C1022.32 261.33 1015.47 258.96 1014.53 260.19C1011.64 255.98 1022.09 262.63 1017.78 258.29C1017.33 258.11 1016.88 257.95 1016.41 257.82C1015.95 257.69 1015.48 257.58 1015 257.5C1014.53 257.41 1014.05 257.35 1013.57 257.32C1013.08 257.28 1012.6 257.27 1012.12 257.29C1014.36 257.04 1010.45 254.51 1009.89 253.59C1001.15 249.79 996.58 246.53 987.29 242.26C986.94 241.68 986.25 240.45 986.78 239.96C981.85 238.69 973.72 239.62 974.78 241.89C969.36 239.71 969.57 238.41 964.69 237.15C971.07 242.48 963.41 236.17 961.62 238.23C956.81 236.54 960.47 236.38 958.54 234.92C957.65 234.85 955.44 234.87 955.05 235.46C952.92 232.44 962.64 233.06 960.13 229.53C958.33 227.22 949.22 220.6 948.57 220.12C945.48 221.21 942.67 229.84 944.9 233.94C943.96 235.19 941.08 230.58 939.08 229.58C934.05 224.82 929.24 227.57 924.63 224.65L928.94 224.93C928.35 224.02 920.72 221.77 919.23 222.11C919.36 221.25 924.68 219.59 922.79 217.72C914.01 213.64 903.75 214.54 903.35 217.16L918.06 220.28C917.73 222.45 907.52 218.28 907.12 220.89L894.77 215.12C896.39 215.69 901.5 217.08 900.02 215.22C894.54 213.16 897.34 213.75 894.08 211.38C896.31 211.3 898.54 211.18 900.77 211C903 210.83 905.22 210.6 907.44 210.33C909.65 210.06 911.86 209.74 914.07 209.37C916.27 209.01 918.46 208.59 920.65 208.13L913.58 206.79L912.42 204.96C903.28 203.11 892.42 207.82 889.42 208.96C884.72 206.5 888.11 202.95 889.61 202.59C880.05 198.52 877.71 204.82 868.22 200.4L871.51 202.75C869.06 202.26 861.05 198.13 861.64 199.26C860.28 197.53 859.54 194.54 861.34 194.17L851.84 194.79C853.15 194.56 853.62 191.11 854.37 190.73C851.1 189.33 847.33 192.09 848.66 193.57C843.13 188.77 844.19 190.63 839.87 185.71C837.77 185.18 838.67 189.41 839.99 190.34C839.16 190.22 838.34 190.05 837.52 189.84C836.71 189.64 835.91 189.39 835.12 189.1C834.33 188.81 833.56 188.48 832.8 188.11C832.05 187.74 831.31 187.33 830.6 186.89C838.66 188.22 835.57 179.96 837.98 177.89L817.98 181.97C818.31 181.72 818.62 181.45 818.93 181.17C819.23 180.9 819.52 180.61 819.8 180.3C820.09 180 820.35 179.69 820.61 179.36C820.86 179.04 821.1 178.7 821.33 178.36C818.89 180.86 800.23 174.31 791.33 170.5L792.7 170.99C794.93 170.63 787.45 166.86 783.86 166.75C784.67 166.34 785.29 166.8 786.67 167.28C781.46 162.74 777.09 168.98 771.92 163.98C777.4 166.35 778.96 165.53 779.12 164.22C774.12 163.61 763.94 158.46 764.84 162.87C762.17 161.03 759.35 160.51 760.28 158.79L748.21 156.79C749.18 156.73 750.3 155.95 747.09 154.48C753.27 157.3 760.63 156.22 763.09 159.8C764.08 157.61 762.14 155.55 765.86 154.8C753.26 151.36 745.18 152.64 736.54 152.36L726.38 146.79L725.55 147.63L724.63 144.39C723.07 144.48 721.97 144.64 721.84 144.32C721.71 144 722.17 143.79 722.84 143.61C722.6 143.54 722.36 143.48 722.12 143.43C721.88 143.38 721.64 143.34 721.39 143.31C721.15 143.28 720.9 143.26 720.66 143.24C720.41 143.23 720.17 143.23 719.92 143.23C720 141.7 722.46 140.87 725 140.23L727.31 142.8C729.92 142.3 731.93 141.54 729.31 139.61L727.6 139.61C729.33 139.15 730.45 138.67 729.6 137.93L720.93 136.12C721.74 136.82 722.86 138.06 724.19 139.49C718.43 139.22 711.76 139.07 715.76 142.49L710.06 138.67C701.77 138.47 703.24 138.43 693.59 136.98C693.43 135.91 696.1 136.05 694.73 134.8C687.17 135.23 680.09 125.51 677.73 127.51C672.23 126.16 674.71 128.89 671.1 128.34C671.36 128.12 671.93 127.68 670.93 127.27L666.27 127.59C664.91 126.33 670.41 127.71 666.22 125.23C658.05 123.7 653.19 122.95 647.12 119.64C637.88 116.59 649.68 124.76 642.12 121.45C641.51 119.53 641.23 117.38 636.51 115.32C633.58 115.37 633.48 116.67 628.91 115.67L630.06 113.5C626.03 112.05 622.69 111.23 623.32 109.5C622.67 109.47 622.02 109.4 621.38 109.28C620.73 109.16 620.1 109 619.48 108.8C618.86 108.6 618.25 108.36 617.66 108.08C617.07 107.8 616.5 107.49 615.95 107.13C609.44 105.98 618.6 113.47 619.67 114.91C614.38 110.89 609.89 110.28 607.57 106.23L613.06 107.66C602.95 100.5 601.16 106.74 597.87 99.87C601.63 101.58 606.71 102.17 604.94 100.03L598.94 99.03C598.52 98.17 602.27 99.87 600 98.17C599.4 98.13 598.8 98.09 598.2 98.07C597.6 98.04 597 98.03 596.4 98.02C595.79 98.02 595.19 98.02 594.59 98.04C593.99 98.05 593.39 98.08 592.79 98.11L592.92 98L583.69 94.73C584.82 95 585.05 94.44 583.54 93.75L576.54 92.3C578.77 92.54 577 91.01 574.21 89.45C566.05 85.34 565.39 91.83 559.77 86.83C560.7 87.26 560.97 87.04 561.92 87.48L558.92 85.1C556.2 89.62 538.93 77.35 536.2 81.83C532.22 77.89 536.35 80.52 543.45 80.83L538.93 77.34C541.07 78 542.65 79.1 545.06 79.55ZM582.75 94.4L583.69 94.73C583.42 94.67 583.1 94.56 582.75 94.4ZM848.92 193.8C848.82 193.73 848.73 193.65 848.66 193.57C848.75 193.65 848.83 193.72 848.92 193.8ZM851.67 194.8L851.84 194.79C851.79 194.8 851.73 194.8 851.67 194.8ZM861.85 194.14C861.66 194.13 861.49 194.14 861.34 194.17L861.85 194.14ZM1096.97 287.07C1096.98 287.03 1096.97 286.99 1096.96 286.94L1096.97 287.07ZM1102.51 285.02C1102.37 284.78 1102.22 284.54 1102.07 284.33C1102.18 284.52 1102.32 284.75 1102.51 285.02ZM854.72 182.86C853.47 182.42 854.11 182.88 854.05 183.3C854.23 183.12 854.46 182.98 854.72 182.86ZM854.82 182.9C854.79 182.89 854.77 182.87 854.74 182.86C854.73 182.86 854.73 182.86 854.72 182.86C854.75 182.88 854.79 182.89 854.82 182.9ZM475.98 31.24C475.96 31.24 475.95 31.23 475.93 31.23C475.95 31.23 475.96 31.24 475.98 31.24ZM334.53 58.11C334.48 58.13 334.43 58.15 334.37 58.17C334.42 58.15 334.48 58.13 334.53 58.11ZM283.64 113.62C283.84 113.54 284 113.5 284.13 113.48C283.96 113.53 283.8 113.58 283.64 113.62ZM263.54 166.3L263.19 166.63C263.32 166.49 263.44 166.37 263.54 166.3ZM351.26 55.33C351.2 55.4 351.15 55.46 351.11 55.52C351.16 55.46 351.21 55.39 351.26 55.33ZM394.71 22.63C394.62 22.62 394.53 22.61 394.43 22.59C394.53 22.61 394.62 22.62 394.71 22.63ZM610.09 105.3C610.81 106.74 614.18 106.78 615.81 107C613.49 105.48 612.55 104 610.09 105.3ZM734.37 146.9C734.35 146.9 734.34 146.9 734.32 146.91C734.34 146.91 734.35 146.92 734.36 146.93L734.37 146.9ZM734.32 146.91C733.99 146.67 733.64 146.45 733.28 146.24C732.91 146.03 732.53 145.83 732.14 145.65C731.76 145.47 731.36 145.3 730.96 145.16C730.56 145.01 730.15 144.88 729.74 144.77C731.42 146.12 733.01 147.04 734.32 146.91ZM1062.08 264.9L1061.92 264.9C1061.97 264.93 1062.02 264.97 1062.07 265L1062.08 264.9ZM1061.92 264.9C1061.54 264.65 1061.19 264.42 1060.91 264.23C1061.17 264.41 1061.49 264.63 1061.89 264.9L1061.92 264.9ZM1068.5 268.63C1069.28 268.7 1069.34 268.45 1069.16 268.08C1068.5 268.29 1066.97 267.65 1065.3 266.76C1065.57 267.48 1066.31 268.17 1068.49 268.69L1068.5 268.63ZM340.28 46.13L339 46.94C338.84 48 338.64 49 340.28 46.13Z" />
	<path id="Layer" class="shp3" d="M740 137.22C739.94 137.14 739.89 137.06 739.85 136.97C739.81 136.88 739.78 136.79 739.75 136.69C739.73 136.6 739.72 136.5 739.71 136.4C739.7 136.3 739.71 136.21 739.72 136.11C739 136.17 738.89 136.49 740 137.22Z" />
	<path id="Layer" class="shp3" d="M522.62 55.07L522.41 54.96C522.38 54.97 522.35 54.98 522.32 54.99C522.29 55 522.26 55.02 522.23 55.03C522.2 55.05 522.17 55.07 522.14 55.09C522.12 55.11 522.09 55.13 522.07 55.15L522.62 55.07Z" />
	<path id="Layer" class="shp3" d="M965.46 225.64C965.25 225.52 965.04 225.39 964.84 225.25C964.64 225.11 964.45 224.95 964.26 224.8C964.08 224.64 963.9 224.47 963.73 224.29C963.56 224.12 963.4 223.93 963.25 223.74C963 224.1 963.47 224.69 965.46 225.64Z" />
	<path id="Layer" class="shp3" d="M1106 267.95L1101.72 266.5C1102.04 266.63 1102.35 266.77 1102.66 266.92C1102.96 267.08 1103.26 267.25 1103.55 267.43C1103.84 267.62 1104.12 267.82 1104.39 268.03C1104.66 268.24 1104.92 268.46 1105.17 268.7C1105.26 268.28 1104.72 267.39 1106 267.95Z" />
	<path id="Layer" class="shp3" d="M1137 294C1137.69 294.08 1138.27 294.56 1139 294.63L1139.18 293.82C1136.53 292.71 1134.48 292.49 1137 294Z" />
	<path id="Layer" class="shp3" d="M1107.39 275C1107.1 276.48 1109.88 277.2 1112.85 278.25C1112.81 278.23 1112.76 278.22 1112.72 278.2C1112.68 278.18 1112.63 278.16 1112.59 278.14C1112.55 278.12 1112.51 278.1 1112.46 278.08C1112.42 278.06 1112.38 278.04 1112.34 278.02C1114 276.49 1110.71 275.72 1107.39 275Z" />
	<path id="Layer" class="shp3" d="M1113.54 278.47C1113.77 278.55 1114 278.64 1114.22 278.73C1114.45 278.82 1114.67 278.91 1114.89 279.01C1115.11 279.1 1115.33 279.21 1115.55 279.31C1115.77 279.42 1115.99 279.53 1116.2 279.64C1116.88 279 1115.2 279 1113.54 278.47Z" />
	<path id="Layer" class="shp3" d="M1079.42 258.11C1080.63 259.11 1081.05 256.78 1081.57 257.67C1083.85 256.65 1071.56 255.65 1079.42 258.11Z" />
	<path id="Layer" class="shp3" d="M1107.7 280.42L1107.43 278.3L1105.22 278.9L1107.7 280.42L1107.7 280.42Z" />
	<path id="Layer" class="shp3" d="M1085.64 268.94L1090.01 271.46C1090.07 271.15 1090.72 271.25 1091.49 271.46C1088.7 270.13 1085.76 268.41 1085.64 268.94Z" />
	<path id="Layer" class="shp3" d="M1091.5 271.46C1091.8 271.62 1092.1 271.77 1092.41 271.91C1092.72 272.05 1093.04 272.18 1093.36 272.3C1093.67 272.41 1094 272.52 1094.32 272.61C1094.65 272.71 1094.98 272.79 1095.31 272.86C1095 272.72 1094.69 272.59 1094.38 272.46C1094.06 272.34 1093.75 272.21 1093.43 272.1C1093.11 271.98 1092.79 271.87 1092.47 271.76C1092.15 271.66 1091.82 271.56 1091.5 271.46Z" />
	<path id="Layer" class="shp3" d="M1101.23 278.07L1100.03 277.11L1096.86 275.52L1101.23 278.07L1101.23 278.07Z" />
	<path id="Layer" class="shp3" d="M1036.45 246.63L1031.22 244.9C1030.46 245.25 1031.67 246.19 1033.64 246.79C1035 246.92 1037 247.51 1036.45 246.63Z" />
	<path id="Layer" class="shp3" d="M1049.6 257.87C1049.41 257.73 1049.24 257.57 1049.07 257.4C1048.91 257.23 1048.76 257.05 1048.62 256.87C1048.48 256.68 1048.35 256.48 1048.24 256.27C1048.13 256.06 1048.03 255.85 1047.95 255.63L1046.89 257.63L1049.6 257.87Z" />
	<path id="Layer" class="shp3" d="M1034.78 251.89C1034.03 252.24 1026.78 250.34 1033.19 253C1033.95 252.66 1039.18 254.39 1034.78 251.89Z" />
	<path id="Layer" class="shp3" d="M960.02 216.69L961.32 217.2L962.56 213.72L960.02 216.69L960.02 216.69Z" />
	<path id="Layer" class="shp3" d="M889.35 197.47C895.05 200.67 891.62 195.92 896.65 199.11C898.38 198.86 892.54 196.5 894.26 196.38C890.3 195.77 888.57 194.57 889.35 197.47Z" />
	<path id="Layer" class="shp3" d="M894.27 196.38C894.91 196.48 895.59 196.56 896.33 196.6C896.16 196.56 895.99 196.53 895.82 196.5C895.65 196.47 895.48 196.45 895.31 196.43C895.13 196.41 894.96 196.4 894.79 196.39C894.62 196.38 894.44 196.38 894.27 196.38Z" />
	<path id="Layer" class="shp3" d="M45.42 411.28L42.18 414.05L44.85 412.73L45.42 411.28L45.42 411.28Z" />
	<path id="Layer" class="shp3" d="M42.49 419.22L40 418.51L40.07 421.79C40.62 421 41.62 419.45 42.49 419.22Z" />
	<path id="Layer" class="shp3" d="M649.89 110.36L650.39 109.95C650 109.15 649.1 108.75 647.31 107.95L649.89 110.36Z" />
	<path id="Layer" class="shp3" d="M597.64 87.85L598.53 88.26L597.63 85.6L597.64 87.85L597.64 87.85Z" />
	<path id="Layer" class="shp3" d="M552.46 72C554.22 72.85 556.52 73.32 558.28 74.18C554.22 72.85 553 69.36 552.46 72Z" />
</svg>