<svg id="Layer_1" data-name="Layer 1" xmlns="http://www.w3.org/2000/svg" viewBox="0 0 841.89 595.28"><defs><style>.cls-1{fill:#69a4cc;}.cls-2{fill:#acc4cd;}</style></defs><title>tengalow svg format</title><path class="cls-1" d="M273.67,355.72q10.39,8.59,10.39,28.5v71.25H255.72V391.1q0-8.35-2.22-12.82-4-8.15-15.42-8.15-14,0-19.18,11.94-2.7,6.31-2.7,16.11v57.28H188.54V349.84h26.79v15.44q5.31-8.16,10.05-11.75,8.5-6.4,21.56-6.41Q263.28,347.13,273.67,355.72Z"/><path class="cls-2" d="M330.51,349.55q10.08,4.17,16.29,15.34V349.65h27V450q0,20.48-6.89,30.87Q355,498.76,321.46,498.77q-20.29,0-33.1-8T274.18,467h30.09q1.16,4.85,3.79,7,4.46,3.78,15,3.78,14.95,0,20-10,3.3-6.41,3.3-21.55v-6.8a33.74,33.74,0,0,1-8.54,10.19Q329.61,456,316.41,456q-20.39,0-32.57-14.32t-12.18-38.78q0-23.58,11.73-39.65t33.26-16.07A36.34,36.34,0,0,1,330.51,349.55Zm9.42,75.86q6.67-7.33,6.67-23.35,0-15-6.33-22.91t-17-7.87q-14.5,0-20,13.69-2.9,7.28-2.9,18a41.1,41.1,0,0,0,3.09,16.4q5.61,13.4,20.11,13.4A21.23,21.23,0,0,0,339.93,425.42Z"/><path class="cls-1" d="M143.84,312.37v25.34H101V455.47H70.93V337.71h-43V312.37Z"/><path class="cls-2" d="M171.71,351.8A43,43,0,0,1,190,367.45a52,52,0,0,1,8.43,21.87,135.52,135.52,0,0,1,.91,21H122.27q.64,15.92,11.07,22.33a28.11,28.11,0,0,0,15.26,4q9.45,0,15.36-4.85a23.4,23.4,0,0,0,5.7-7.28h28.25q-1.12,9.42-10.26,19.12-14.22,15.44-39.81,15.44a57.66,57.66,0,0,1-37.27-13q-16.14-13-16.14-42.36,0-27.49,14.58-42.17t37.84-14.67A60.21,60.21,0,0,1,171.71,351.8Zm-41.39,23.9q-5.87,6-7.37,16.38h47.67q-.76-11-7.37-16.72t-16.41-5.7Q136.18,369.65,130.32,375.7Z"/><path class="cls-1" d="M405.53,391.1q7.72-1,11-2.43,6-2.52,6-7.86,0-6.51-4.58-9t-13.43-2.48q-9.94,0-14.07,4.85a20.06,20.06,0,0,0-3.94,9.71h-26.7q.88-13.88,7.8-22.81,11-14,37.83-14,17.45,0,31,6.89T450,380v48.54q0,5,.2,12.24.29,5.44,1.65,7.38a9.85,9.85,0,0,0,4.08,3.2v4.08H425.85a30.68,30.68,0,0,1-1.75-6q-.49-2.81-.78-6.41A57.15,57.15,0,0,1,410,453.62a40.14,40.14,0,0,1-20.31,5.14q-14.45,0-23.87-8.2t-9.42-23.25q0-19.51,15.16-28.25,8.31-4.76,24.45-6.8ZM422.45,404a30.6,30.6,0,0,1-5.37,2.67,45,45,0,0,1-7.43,1.89l-6.3,1.17q-8.86,1.55-12.72,3.78-6.54,3.79-6.54,11.75,0,7.08,4,10.24a15.15,15.15,0,0,0,9.71,3.16,28.9,28.9,0,0,0,16.71-5.24q7.64-5.24,7.94-19.12Z"/><path class="cls-2" d="M595.46,349.65h28.06l16.12,76.21,16.5-76.21H685L654.29,455.47H625.85l-16.6-77.08-16.79,77.08H563.72L534,349.65h29.71l16.5,75.92Z"/><path class="cls-2" d="M469.78,455.47H442.11V312.37h27.67Z"/><path class="cls-1" d="M550.69,442.52q-13.4,16.53-40.68,16.54t-40.68-16.54q-13.39-16.54-13.4-39.82,0-22.89,13.4-39.67T510,346.25q27.28,0,40.68,16.78t13.4,39.67Q564.09,426,550.69,442.52Zm-22.14-15.3q6.5-8.63,6.51-24.52t-6.51-24.48q-6.51-8.58-18.64-8.58t-18.69,8.58q-6.55,8.58-6.55,24.48t6.55,24.52q6.55,8.63,18.69,8.63T528.56,427.23Z"/><path d="M812.48,353.76c1.18.66,1.21-.54,1.48-.63C811.82,352.39,812.41,354,812.48,353.76Z"/><polygon points="791.28 346.5 791.83 346.26 788.39 345.86 791.28 346.5"/><path d="M772.45,337.6c1,2.53,7,2.94,10,5.13l.37.65,2.16-.65C780.82,341,775.1,339.42,772.45,337.6Z"/><path d="M764.12,329.2c.31,1-2.44-.46,2.25,1.31a4.28,4.28,0,0,1-.35-.37C765.61,330,765.05,329.69,764.12,329.2Z"/><path d="M766,330.14c2,.89-1-1.17,0,0Z"/><path d="M756.67,326.21l2.89.64c-.36-.65-2.65-1.83-1.65-1.7C755.07,324.2,755.45,324.85,756.67,326.21Z"/><path d="M753.61,326.28l1.47.39C754.92,326.39,754.59,326.17,753.61,326.28Z"/><path d="M758.21,327.49l-3.12-.82c.25.45,0,1,1.41.43C756,327.49,756.82,327.27,758.21,327.49Z"/><path d="M759.71,328.51c1.3,1.06,3.08,2.18.18,1.53C765,332.17,764.83,330.63,759.71,328.51Z"/><path d="M770.66,338.9l1.73,1.42,2,.23C773.37,340.43,770.79,338.31,770.66,338.9Z"/><path d="M740.77,317.69c-.33.29.43,1.37.41,1.93l2.13.49C742.43,319.39,740.65,318.28,740.77,317.69Z"/><path d="M741.18,319.62l-3.19-.73C740.55,320.16,741.16,320.09,741.18,319.62Z"/><polygon points="752.26 327.95 757.62 328.87 751.33 327.54 752.26 327.95"/><polygon points="729.73 312.48 731.76 312.41 728.25 312.31 729.73 312.48"/><path d="M722.32,309.22c1.54-.13-1.12-1.95.36-1.78a21.05,21.05,0,0,0-5.82-1.17A14.13,14.13,0,0,1,722.32,309.22Z"/><path d="M713.92,305.85a23.46,23.46,0,0,0,2.94.41A12,12,0,0,0,713.92,305.85Z"/><path d="M733.15,316.41a3.68,3.68,0,0,0-1.8-2.09l.67,1.55Z"/><path d="M732,315.91l0-.05-2.43-1.2Z"/><path d="M733.43,316.54l-.29-.14C733.21,316.56,733.26,316.62,733.43,316.54Z"/><path d="M745.11,323.47c-2-.23-5.79-1.28-2.77,1.19C743.88,324.54,742.15,323.13,745.11,323.47Z"/><path d="M734.25,318.47l3,1.67c.06-.3-.31-.95.67-.84Z"/><polygon points="732.6 318.1 734.25 318.47 733.15 317.86 732.6 318.1"/><path d="M718.76,309.25a18,18,0,0,1-4.69-1.5,52.05,52.05,0,0,0,5.17,2.77C719.64,310.31,720.66,310.09,718.76,309.25Z"/><path d="M725.18,312.57l-.32-.08C725,312.66,725.13,312.76,725.18,312.57Z"/><polygon points="697.88 300.27 698.05 300.58 698.19 300.43 697.88 300.27"/><path d="M719.45,310.85a5.35,5.35,0,0,0,3,1c-1-.36-2.12-.78-3.25-1.29C719.07,310.61,719,310.7,719.45,310.85Z"/><path d="M709.19,304.24c.59.53,1.29,1.08,2,1.62C710.7,305.23,709.55,304.09,709.19,304.24Z"/><path d="M724.54,312l.22,0C724.42,311.63,724.43,311.76,724.54,312Z"/><path d="M724.54,312a10.62,10.62,0,0,0-2-.19,19.51,19.51,0,0,0,2.36.68A2.13,2.13,0,0,1,724.54,312Z"/><path d="M690,304.56c.67-.84,4.55-.11,7.09,2.29,3.29.65,2.78-3.34,1-6.27-.28.37-.46.75-3.76-.09.83,1,6.21,4.31,3.24,4-4.26-1.37-3.15-1.85-4.89-3.26,1.13,1.94-5.92-.65-5.83,1.49l3.82,1C690.57,304,689.09,303.87,690,304.56Z"/><path d="M703.81,303.35l1.31.46a17.71,17.71,0,0,1-3.75-3.28c-2.3-.5-2.89-.35-3.18-.1l6.12,3Z"/><path d="M710.75,306.4c-1.45.57-4.66-.38-3.33,1.58,3.71,1.63,3,.33,5.37.91-6-2.49,2,.22-2-2.35a32.68,32.68,0,0,1,3.33,1.21c-1-.62-2-1.25-2.85-1.89l.11.13h0c.2.25.24.36,0,.16a.53.53,0,0,1-.13,0,1.07,1.07,0,0,1-.45.26c-1.62-1-.15-.39.45-.26,0,0,.11-.07.14-.12l0,0-6.21-2.18A44.73,44.73,0,0,0,710.75,306.4Z"/><path d="M738.14,325.39c-.14-.18-.1-.25-.08-.33C737.62,325,737.44,325,738.14,325.39Z"/><path d="M736,323.64a3.93,3.93,0,0,1,2.4.58c1.07.87-.24.49-.33.86,1,.12,3.3.64.88-1.09l-.48-.06c-2.22-1.47-4.69-4.18-4.21-4.12A9,9,0,0,0,736,323.64Z"/><path d="M723.09,315.19l-5.18-1.79,2.11,2.06.12-.59C722.86,316.37,722.55,315.43,723.09,315.19Z"/><polygon points="697.54 299.5 698.7 298.72 695.13 298.94 697.54 299.5"/><polygon points="691.04 296.67 691.71 295.84 689.75 295.63 691.04 296.67"/><path d="M315.32,159.66l-1.6-.33A10,10,0,0,0,315.32,159.66Z"/><path d="M326.09,164l.45-.37C325.94,163.72,325.65,163.83,326.09,164Z"/><path d="M531,227.89c-1.81-1.78-3.7-4.12-3.86-2.93l.25,1.32A10.69,10.69,0,0,1,531,227.89Z"/><path d="M417.1,192.14l.52.56,1.86-.48Z"/><path d="M413.92,196l-2.63-1.76A17.41,17.41,0,0,0,413.92,196Z"/><path d="M256.35,136.05l-2.17.31C256.85,137.53,255.91,136.48,256.35,136.05Z"/><path d="M624.6,267.35a28.07,28.07,0,0,0-4.33-2.65C622.24,266.28,623.64,268,624.6,267.35Z"/><path d="M324.05,150.14c-1-.17-1.46-.11-1.53.14C323.53,150.47,324.14,150.48,324.05,150.14Z"/><path d="M614.93,262.39c.28.25.58.44.87.67a25.81,25.81,0,0,1,4.47,1.64A9,9,0,0,0,614.93,262.39Z"/><path d="M93.2,218.73c-.15.1-.29.24-.43.32C92.85,219.18,93,219,93.2,218.73Z"/><path d="M42.06,263.39c.36-.56,1-1.39,1.66-2.19A11.44,11.44,0,0,0,42.06,263.39Z"/><path d="M665.28,284.43c1.4.55.27,0,0,0Z"/><path d="M670.09,291.53c-.34,0-.63,0-.78.26A1,1,0,0,1,670.09,291.53Z"/><path d="M598.38,263l-.12-.05C598.58,263.29,598.53,263.22,598.38,263Z"/><path d="M667.13,285.83a15.46,15.46,0,0,0-1.61-1.1A16,16,0,0,0,667.13,285.83Z"/><path d="M667.07,285.21l1.15.64C668.47,285.76,668.37,285.58,667.07,285.21Z"/><path d="M663.34,283.62a19,19,0,0,1,2.17,1.11c-.24-.19-.32-.3-.24-.3Z"/><path d="M168.42,121.4l-.29.18C167.54,123.05,167.9,122.49,168.42,121.4Z"/><path d="M490.27,224.79c.07,0,.11,0,.18,0l-.19-.12Z"/><path d="M484.93,223.67a6.36,6.36,0,0,1,5.32,1l-.5-3.7Z"/><path d="M289.44,149.37l3.12,2.41c-4.89-.21-7.74-2-5,.67,1.88-3.09,13.8,5.37,15.65,2.25l2,1.64c-.65-.3-.84-.15-1.48-.45,3.87,3.41,4.33-1,9.95,1.8,1.92,1.08,3.14,2.13,1.6,2l4.85,1c1.29.59.74,1-.55.45l7,2.47-.09.08a37.57,37.57,0,0,1,5,0c1.57,1.17-1,0-.73.59l4.14.71c1.22,1.47-2.28,1.07-4.87-.11,2.27,4.73,3.5.43,10.46,5.37l-3.78-1c1.6,2.79,4.69,3.21,8.33,6-.74-1-7-6.15-2.56-5.36a10.23,10.23,0,0,0,5.08,1.63c-.44,1.19,1.87,1.76,4.64,2.74l-.79,1.5c3.14.68,3.22-.2,5.23-.24,3.25,1.42,3.47,2.9,3.86,4.22,5.21,2.28-2.92-3.35,3.47-1.25,4.18,2.28,7.53,2.8,13.16,3.85,2.88,1.71-.9.76,0,1.63l3.21-.22c.66.28.3.59.11.74,2.49.38.78-1.5,4.57-.57,1.63-1.37,6.5,5.32,11.73,5,.94.86-.89.77-.78,1.5,6.65,1,5.64,1,11.34,1.17l3.93,2.63c-2.73-2.36,1.84-2.25,5.81-2.09-.91-1-1.69-1.84-2.24-2.32l6,1.25c.59.51-.18.84-1.35,1.16h1.18c1.81,1.33.42,1.85-1.35,2.2l-1.68-1.73c-1.75.44-3.45,1-3.5,2a6.91,6.91,0,0,1,2,.26c-.46.12-.78.27-.67.49s.85.11,1.92,0l.64,2.23.57-.58,7,3.84c6,.19,11.52-.7,20.2,1.68-2.56.52-1.23,1.94-1.91,3.42-1.7-2.46-6.76-1.72-11-3.66,2.21,1,1.44,1.55.77,1.59l8.31,1.41c-.64,1.18,1.3,1.55,3.14,2.81-.62-3,6.4.51,9.84.93-.11.9-1.18,1.46-5-.17,3.56,3.44,6.57-.85,10.16,2.28-.95-.33-1.41-.65-1.94-.36,2.47.08,7.63,2.67,6.09,2.92l-.94-.33c6.13,2.62,19,7.14,20.7,5.41a10.29,10.29,0,0,1-2.3,2.49l13.79-2.81c-1.66,1.42.47,7.11-5.08,6.17a16.9,16.9,0,0,0,6.47,2.38c-.91-.64-1.53-3.56-.08-3.19,3,3.45,2.22,2.08,6.24,5.57-1.37-1,1.4-3.13,3.76-2.12-.54.28-.87,2.85-1.86,2.8l7-.45c-1.68-.08-1.17,2.23-.14,3.53-.41-.78,5.11,2.06,6.8,2.4l-2.27-1.62c6.54,3,8.15-1.29,14.73,1.51-1,.25-3.37,2.7-.13,4.39,2.1-.79,9.55-4,15.87-2.74l.8,1.26,4.87.93a106.22,106.22,0,0,1-18.31,2.24c2.25,1.63.32,1.22,4.09,2.65,1,1.28-2.5.33-3.62-.07l8.51,4c.28-1.8,7.31,1.07,7.53-.42l-10.13-2.15c.28-1.8,7.34-2.43,13.39.38,1.3,1.29-2.36,2.43-2.46,3,1-.24,6.29,1.31,6.69,1.94l-3-.19c3.17,2,6.49.12,10,3.4,1.38.7,3.36,3.86,4,3-1.54-2.82.4-8.77,2.53-9.52.45.33,6.73,4.89,8,6.48,1.73,2.43-5,2-3.5,4.09.27-.41,1.79-.42,2.41-.37,1.33,1-1.19,1.11,2.12,2.28,1.23-1.42,6.51,2.93,2.11-.75,3.36.87,3.21,1.76,7,3.27-.73-1.57,4.87-2.21,8.24-1.33-.37.34.11,1.19.35,1.58,6.4,2.94,9.55,5.19,15.57,7.8.38.63,3.08,2.38,1.53,2.55a9.61,9.61,0,0,1,3.9.65c3,3-4.23-1.59-2.24,1.31.65-.85,5.37.79,8.27,1.35-.17-1.83-6-3-8.88-3.52.87-2,6.41-2.14,13.11-.32,5.22,1.69,1.59,2.26,2.59,2.35,9.22,4.49,9.55,0,16.69,4.92,2.51,2.66-1,2.63-.74,3.86-4.28-1.32-5.87-3.59-8.65-4.76l3.12,2.12a13.69,13.69,0,0,1-5.65-2.06c2.07,2.31,15.73,7.24,22.45,11.58,1.47.15,3.89.69,3.07-.29l-2.36-.85c-1.63-2,4.94.5,2.27-1.29,3.39.65,7.35,1,11.38,3.59l.14,1.83c.1-.47-2.41-2.16-3.83-2.25,2.09.16,5.7,5,8.53,4l-2.55-2.39c3.4.66,7.91.83,11.51,3-1.08-2.24-1-.23-2.89-3.16,1.39,3.18-9.72-4.53-7-.6-1.89-3.23-4.43-3-7.32-6.35-.11.53.87,1.51-2.23-.18a3.63,3.63,0,0,1-.9.11l-.2-.13.15.14c-.17,0-.19,0,.06,0a4.35,4.35,0,0,1,1.3,1.47c-2.09.39-7.18-1.94-9.16-2.14-1.8-1.09,1-.2.24-1.18l-3-.3c.23-1.19-4.26-4.07.51-2.68l-4-1.86a21,21,0,0,0-7.51-3.81c-1.81-1.08-5.35-1-3.31-1.06l-6.64-2.15.06-.3c-6.22-2.88-13.69-3.9-20-9a34.86,34.86,0,0,1-8-3.09l-.29-1.24c-2.86-.85-7.77-4.47-9.37-4-1.87-3.77-13-6.2-17.63-8.64l-.7,1.15a80.76,80.76,0,0,0-10.92-3.65l-.2,1.19c-3.91-.6-8.8-4.54-14.47-6.72.55-.26,1.93.43,2.84,1.1-5.71-5.23-14.9-4-20.3-8.21a7.34,7.34,0,0,1-3.69-1.49,1.43,1.43,0,0,0,.4.09l-.62-.26c-.6-.46-1.2-1-1.89-1.43a10.28,10.28,0,0,0,1.55,1.3,38.66,38.66,0,0,0-4.88-1.44l-.28-1.47-.42-.12c-1.55-1.11-1.6,0-1,1.26a13,13,0,0,0-2.59-.2c-.65-2.45-4.84-1.16-6-3.93-1.56.52-9.1-2.68-10.84-.95,0-.29-.42-.62.53-.28a14,14,0,0,0-5.7-2.06l-.25-1.82-5,.38c-2.25-1.9-3.12-2.84-.1-3-6.9-.58-5.31-1.24-11.27-1.49l.63-.87c-1.91-.68-5.42-.53-6.26-1.76-3.54-3.44-20.88-8.11-31.13-13.86,1,3.65-4.59-3.16-5.84-1.1-.38-.91-1.76-1.86.22-1.8-5.81-1.39-8-4.17-12.48-3.71-.38-.92,1.56-.56,1.14-1.17-.5,0-2-.06-2.41-.68s1-.27,2-.24c-5.72-2-7.07-.11-8.21,1.7-2.53-2-4-2.39-6.57-1.87-.76-1-2.18-2.3,1.43-1.23-1.95-.83-11.76-5.44-12.55-3.94-.47-.63-2.73-1.15-3.32-1.16-4.41-1.75-4.75-2-9.17-3.52l1.11.71c-2.43,1.25-3.79-.93-7.39-2l.17-.16c-7.55-4.4-3.73-.65-11.09-5.21v1.34c-1.7,2.25-6.48-4.14-11.45-4.95l1.41,1.31c-2.85-.1-5.72-6.13-8.12-7.41-.47-.43,1,0,1.83.11-6-4-1.45,1.22-6.51-.32-.59-1.18,2-1.66-1.26-3.1-1.38-1.32-10.64-1-14.52-4.39.74,1,1.47,2.06-1,1.64-3.58-1.16-8.47-6.15-12.42-5.39-.37-.35-.47-.58-.43-.75-2.87-.55-9-2.64-11-2.21-.82-5-17.29-4.84-15.7-8.53l-8.21-3.22L288,136c-5.07-2.46-7.28-2.36-9.48-2.26-1.09-.76-.07-.73.12-.88-7.24-4-8-4.19-15.19-5.14l-.14-1.48c-2-.06-10.12-6.69-18.24-8.46a1.27,1.27,0,0,1,1.05-.19c-9-2.19-19.15-11.64-24-8.32l-6.12-.93c7.27,3-1.77,1.54,1,3.36-3-.76-7.06-3.89-3.4-2.93l.49.41c2.13-2-9-3.86-8.32-5.36l-11.16-3.22c-1.84-.56-3.71-1-5.56-1.51l-1.39-.37c-.42-.12-.92-.25-1.66-.41l-4-.91-4.09-.92c-.91,1-1.79,2-2.69,3.06L170.46,105c-2.41,2.75-4.78,5.49-7.06,8.25l2.53-.06L162.69,117c-1.17.73-2.27.41,0-2.3-2,.77-3.07,5.22-2.81,5.57-5,4.93,0-3.54-1.4-1.91l-1.72,2.35.59-.37c-.88,2.33-.37,3-3.15,6.28-2,1.86-1.79.33-2.53,1.11-.1-.09-.38.15-1.08,1.24l-4.1,4.79,2.76-1c-1.18,2.64-3.8,4.55-.64,3.38-4.74,1.63-15.57,17.63-17.86,19.15-1.61,3.73-4.06,6.72-7.18,10.34,1-.72,2.76-.2,0,2.87-1.77-3.39-5.95,4.9-10,5.88,3.18-1.25-7.08,9.36-2.28,7.24-2.39,2.49-1.15-.67-3.44.83-4.11,7.22-12.08,13.45-18.11,21.6.26.41,1.88-.46,1,1.66l-5.17,2.69c-1.09,1.69.91,3.11-2.64,4.93.63-.16,1.57-.38.84.75-14.27,14-24.14,32.61-40.15,45.59,2.42-1.56,1.34-.09.05,1.55,1-.92.87.74,1.52.93l-6.68,5.45c.38,2.28-5.61,7.09-4.88,8.81l1.45-2.26c-.71,4,6.53-1.13,8.16.85.77-4.48,9.19-6.07,10.82-13.13,1.31-.8-.14,1.46.8,1.23.2-2,1.29-3.65,4-6.22l-.06.49c6.36-8.23,10-11,17.91-19.64l-1.51-.11a14.36,14.36,0,0,1,3.33-2.72c.35-3.42-4.53,5.4-4.49,2.06,4.07-1,11.2-13.71,14.85-13.64,2.45-3-1.83,0,.62-3l1.25-.3-.16-1.39c1.73-1.86,3.29-2.24,3.86-1.9a15,15,0,0,0-1.33,2c2.78-2,5.6-7.38,6.54-8.06L97,213.24c6.08-8.63,15-18,20.19-26.87l-.94.23c4.06-6.72,4.43-4.42,9.42-11.36l-.09.33a18.74,18.74,0,0,1,3.36-5.42c-.83,2.11,3.59-2.3,2.4.37,4.42-7.28,1.92-3.81,3.75-9.51l1.56-.38c.52-2,.26-2.45,2.75-5.91-1.56,3.24,2.87-1.17,1.25,2.57,7.29-5.59,6.72-11.67,11.72-12.88.51-4.89-6,5.06-5,2.91-1.9.94.58-3.91,2.56-5.91,1.85-2.18,5.73-1.59,10.23-7.19-.46.55-.33.71-.79,1.26,2.23-1.65,2.61-4.68,5.55-6.53-.09-2.47,2.78-3.26,1.51-5l-3.79,5.42c1.94-3.24,2.27-7.51,7.07-11.54a12.94,12.94,0,0,1-1.27,3.58c1.61-1,1.87-2.95,3.54-4,1.27,1.73-4.71,6.5-6,10.62,1.9-.94,3.62-6.83,4.09-3.84-.39-4.06,4.75-5.26,6.13-10.43l.76,1a14.09,14.09,0,0,1,1.81-3.41l-.37,3a7.78,7.78,0,0,1,1.52-2.51,13,13,0,0,1,1-1,1.6,1.6,0,0,1,.56-.28c.34-.12.65-.17.88-.26s.33-.4.58-.44c-.32-.15-.4.18-.55.23a.63.63,0,0,1-.35.14c-.21,0-.37-.14-.5-.36-.29-.42-.39-1.27-1.24-.95a7.9,7.9,0,0,1,.87-1.6,3.49,3.49,0,0,1,.41-.48,1.8,1.8,0,0,1,.55.2,3.9,3.9,0,0,1,1.49,1.44c.42.57.47,1.08,1.08,1.57a17.22,17.22,0,0,0,5.39,1.63c-1.43-.14-5.07-1.91-2.76-2a18.62,18.62,0,0,1,5.42,2.73c6.85,1.49-.72-1.51,2.37-1.51,1.94,2,3.5.33,6.65.71l-.34,1.22c7.48,3.16,2.84-1.95,9.51,1.26l-3.48.7,3.75.77-1.2,1.12c4.25.28,5.38,1,9.06,2.75-.58-1.16,1.29-2,4.69-.74,2,1.58-1.71.62,3.13,2.3-1.36.31-2.9.79-4.56-1.08-.36.31-1.34.34-1.7.64,2.17,1.72,6.13,2.53,7.85,3.22a7.87,7.87,0,0,1-1.75-1l7.54,1.13c.91.88-.1.89-1.09.88,1.44.45,2.63.28,4.72,1-.92.73-1.21,1.75-4.28,1l7,1.66c.26.59,2.87,2.55,1.87,2.54,3.37,2.1,9.66,2,14.16,4.83a4.5,4.5,0,0,1,2,.28c4.43,2.2,7.94,5.13,13.91,6.17l2.34,3c4.4,1.43-3.23-3.92,4.09-1.53,5.22,1.6,1.24,2.25,2.8,3.47,2.85.23,7.91.29,11.93,3.59A32.82,32.82,0,0,1,289.44,149.37Zm53,20.45c-1.12-.15-3.46-.18-3.94-1.17C340.15,167.76,340.8,168.76,342.4,169.83Zm81.67,27.49c-.91.11-2-.52-3.19-1.47A10.13,10.13,0,0,1,424.07,197.31Zm225.75,81.31h-.13C647.64,277.18,648.36,277.71,649.81,278.62Zm4.42,2.57c.54,0,.58-.13.45-.38a5.16,5.16,0,0,1-2.66-.91C652.23,280.35,652.73,280.83,654.24,281.19ZM151.71,128.43l.88-.56C151.46,129.84,151.6,129.15,151.71,128.43Z"/><path d="M414.31,195.55a1.13,1.13,0,0,1-.2-.81C413.63,194.8,413.54,195,414.31,195.55Z"/><path d="M256.76,136l-.15-.08a.52.52,0,0,0-.25.14Z"/><path d="M577.79,259.66a5.58,5.58,0,0,1-1.61-1.38C576,258.54,576.35,259,577.79,259.66Z"/><path d="M679.69,290.33l-3.1-1.05a7.7,7.7,0,0,1,2.5,1.59C679.15,290.57,678.76,289.92,679.69,290.33Z"/><path d="M702.13,309.22c.5.06.92.41,1.42.46l.13-.59C701.82,308.28,700.33,308.12,702.13,309.22Z"/><path d="M680.69,295.41c-.21,1.08,1.8,1.59,4,2.36a3.2,3.2,0,0,1-.37-.17C685.52,296.52,683.1,296,680.69,295.41Z"/><path d="M685.15,298a14.71,14.71,0,0,1,1.93.85C687.57,298.37,686.35,298.33,685.15,298Z"/><path d="M660.41,283.19c.87.69,1.18-1,1.56-.32C663.63,282.14,654.71,281.41,660.41,283.19Z"/><polygon points="680.92 299.37 680.72 297.83 679.12 298.26 680.92 299.37"/><path d="M664.93,291l3.17,1.83c0-.22.52-.15,1.08,0C667.14,291.91,665,290.66,664.93,291Z"/><path d="M669.17,292.87a10.42,10.42,0,0,0,2.76,1A22.33,22.33,0,0,0,669.17,292.87Z"/><polygon points="676.22 297.66 675.36 296.97 673.06 295.81 676.22 297.66"/><path d="M629.26,274.87l-3.79-1.25c-.55.25.33.94,1.76,1.37C628.22,275.08,629.64,275.51,629.26,274.87Z"/><path d="M638.8,283a3.68,3.68,0,0,1-1.2-1.63l-.77,1.44Z"/><path d="M628,278.69c-.55.26-5.8-1.13-1.15.8C627.45,279.24,631.24,280.49,628,278.69Z"/><polygon points="573.86 253.17 574.8 253.54 575.7 251.02 573.86 253.17"/><path d="M522.62,239.23c4.13,2.32,1.64-1.13,5.29,1.19,1.26-.18-3-1.89-1.73-2C523.31,238,522.05,237.13,522.62,239.23Z"/><path d="M526.19,238.44c.46.07,1,.13,1.49.16A6.64,6.64,0,0,0,526.19,238.44Z"/><polygon points="33.94 271.11 31.59 273.11 33.53 272.15 33.94 271.11"/><path d="M31.82,276.86,30,276.35l.05,2.38C30.46,278.15,31.19,277,31.82,276.86Z"/><path d="M349,176.08l.36-.3c-.28-.58-.93-.87-2.23-1.45Z"/><polygon points="311.14 159.76 311.79 160.06 311.14 158.13 311.14 159.76"/><path d="M278.39,148.27c1.28.62,2.94,1,4.22,1.58C279.67,148.89,278.8,146.36,278.39,148.27Z"/></svg>